<?xml version="1.0" standalone="no"?>
<!DOCTYPE svg PUBLIC "-//W3C//DTD SVG 20010904//EN" "http://www.w3.org/TR/2001/REC-SVG-20010904/DTD/svg10.dtd">
<!-- Created using Krita: https://krita.org -->
<svg xmlns="http://www.w3.org/2000/svg" 
    xmlns:xlink="http://www.w3.org/1999/xlink"
    xmlns:krita="http://krita.org/namespaces/svg/krita"
    xmlns:sodipodi="http://sodipodi.sourceforge.net/DTD/sodipodi-0.dtd"
    width="540pt"
    height="540pt"
    viewBox="0 0 540 540">
<defs/>
<g id="l2YFzh5enTWMhOwLryj2Fh" transform="matrix(0.072 0 0 0.072 0 0)" fill="none">
  <g id="group0" fill="none">
   <path id="pNLigjL7X" transform="translate(331.626690509065, 1071.45805190454)" fill="#09070d" stroke-opacity="0" stroke="#000000" stroke-width="0" stroke-linecap="square" stroke-linejoin="bevel" d="M3277.37 5483.54C3152.37 5458.54 2997.37 5378.54 2877.37 5276.54C2824.37 5231.54 2755.37 5147.54 2714.37 5076.54L2687.37 5030.54L2626.37 5061.54C2569.37 5091.54 2558.37 5093.54 2464.37 5093.54C2337.37 5093.54 2261.37 5068.54 2166.37 4998.54C2036.37 4902.54 1968.37 4779.54 1960.37 4622.54L1956.37 4531.54L1855.37 4519.54C1649.37 4494.54 1498.37 4427.54 1391.37 4314.54C1277.37 4194.54 1222.37 4045.54 1245.37 3920.54C1251.37 3889.54 1259.37 3855.54 1263.37 3846.54C1269.37 3831.54 1264.37 3828.54 1237.37 3828.54C1156.37 3828.54 1039.37 3780.54 980.373 3725.54C914.373 3663.54 869.373 3553.54 868.373 3457.54L868.373 3420.54L781.373 3416.54C656.373 3409.54 589.373 3381.54 513.373 3304.54C449.373 3239.54 407.373 3165.54 383.373 3072.54C363.373 2994.54 364.373 2926.54 388.373 2788.54C412.373 2648.54 413.373 2579.54 392.373 2507.54C360.373 2400.54 336.373 2363.54 136.373 2103.54C46.3733 1986.54 -9.62669 1815.54 1.37331 1690.54C10.3733 1597.54 50.3733 1517.54 117.373 1457.54C204.373 1379.54 326.373 1328.54 426.373 1328.54C449.373 1328.54 468.373 1327.54 468.373 1326.54C468.373 1324.54 461.373 1305.54 453.373 1283.54C431.373 1221.54 434.373 1159.54 463.373 1101.54C477.373 1073.54 500.373 1042.54 514.373 1033.54L540.373 1017.54L489.373 963.542C380.373 848.542 361.373 712.542 441.373 621.542C481.373 575.542 536.373 551.542 618.373 542.542L683.373 536.542L684.373 474.542C685.373 357.542 770.373 254.542 904.373 207.542C1022.37 165.542 1171.37 204.542 1278.37 304.542L1329.37 351.542L1361.37 320.542C1452.37 232.542 1589.37 238.542 1682.37 334.542C1726.37 379.542 1750.37 422.542 1772.37 498.542C1782.37 530.542 1798.37 560.542 1812.37 570.542C1834.37 586.542 1836.37 585.542 1889.37 541.542C1973.37 472.542 2206.37 307.542 2294.37 256.542C2404.37 191.542 2691.37 71.5419 2802.37 43.5419C2949.37 6.54195 3132.37 -4.45805 3524.37 1.54195C3993.37 7.54195 4040.37 16.5419 4359.37 153.542C4442.37 189.542 4555.37 245.542 4608.37 278.542C4706.37 338.542 4918.37 491.542 4992.37 554.542C5029.37 586.542 5031.37 587.542 5054.37 570.542C5068.37 560.542 5084.37 531.542 5094.37 498.542C5139.37 347.542 5233.37 259.542 5351.37 258.542C5409.37 258.542 5453.37 275.542 5501.37 317.542L5537.37 349.542L5583.37 305.542C5700.37 193.542 5868.37 160.542 6001.37 222.542C6113.37 275.542 6180.37 371.542 6182.37 479.542L6183.37 536.542L6247.37 542.542C6389.37 557.542 6470.37 629.542 6471.37 743.542C6472.37 822.542 6443.37 891.542 6383.37 957.542L6329.37 1015.54L6363.37 1046.54C6421.37 1102.54 6442.37 1201.54 6413.37 1283.54C6405.37 1305.54 6398.37 1324.54 6398.37 1326.54C6398.37 1327.54 6414.37 1328.54 6433.37 1328.54C6591.37 1328.54 6770.37 1436.54 6831.37 1568.54C6859.37 1626.54 6862.37 1643.54 6861.37 1728.54C6861.37 1898.54 6820.37 1989.54 6639.37 2222.54C6459.37 2454.54 6434.37 2544.54 6479.37 2801.54C6512.37 2989.54 6494.37 3106.54 6413.37 3233.54C6339.37 3349.54 6235.37 3408.54 6087.37 3416.54L6001.37 3420.54L5994.37 3485.54C5990.37 3520.54 5978.37 3575.54 5966.37 3606.54C5920.37 3728.54 5771.37 3827.54 5629.37 3828.54C5601.37 3828.54 5597.37 3831.54 5603.37 3846.54C5607.37 3855.54 5615.37 3893.54 5621.37 3930.54C5633.37 4007.54 5616.37 4094.54 5571.37 4188.54C5535.37 4262.54 5411.37 4386.54 5333.37 4425.54C5242.37 4471.54 5122.37 4506.54 5007.37 4519.54L4903.37 4531.54L4906.37 4600.54C4914.37 4758.54 4828.37 4914.54 4680.37 5011.54C4583.37 5075.54 4523.37 5093.54 4402.37 5093.54C4308.37 5093.54 4297.37 5091.54 4240.37 5062.54L4179.37 5030.54L4139.37 5097.54C4042.37 5261.54 3822.37 5422.54 3626.37 5474.54C3543.37 5495.54 3362.37 5500.54 3277.37 5483.54ZM3590.37 5263.54C3794.37 5202.54 3990.37 5004.54 4028.37 4821.54C4045.37 4741.54 4071.37 4718.54 4145.37 4718.54C4216.37 4718.54 4241.37 4733.54 4269.37 4794.54C4281.37 4818.54 4304.37 4850.54 4321.37 4864.54C4349.37 4888.54 4358.37 4890.54 4413.37 4886.54C4481.37 4880.54 4534.37 4857.54 4595.37 4804.54C4641.37 4764.54 4698.37 4661.54 4698.37 4616.54C4698.37 4575.54 4673.37 4521.54 4633.37 4477.54C4603.37 4443.54 4598.37 4431.54 4598.37 4389.54C4598.37 4323.54 4611.37 4292.54 4647.37 4273.54C4691.37 4251.54 4751.37 4254.54 4808.37 4283.54C4845.37 4302.54 4873.37 4308.54 4921.37 4308.54C4997.37 4308.54 5134.37 4275.54 5202.37 4241.54C5307.37 4188.54 5408.37 4060.54 5408.37 3981.54C5408.37 3942.54 5371.37 3863.54 5330.37 3816.54C5278.37 3755.54 5268.37 3735.54 5268.37 3685.54C5268.37 3634.54 5280.37 3601.54 5307.37 3581.54C5334.37 3560.54 5440.37 3565.54 5495.37 3590.54C5526.37 3603.54 5565.37 3612.54 5604.37 3612.54C5682.37 3613.54 5740.37 3578.54 5769.37 3513.54C5786.37 3474.54 5787.37 3463.54 5777.37 3421.54C5764.37 3368.54 5738.37 3313.54 5684.37 3224.54C5654.37 3174.54 5648.37 3155.54 5648.37 3107.54C5648.37 3039.54 5670.37 3005.54 5726.37 2987.54C5775.37 2972.54 5824.37 2934.54 5843.37 2898.54C5856.37 2872.54 5856.37 2864.54 5845.37 2836.54C5837.37 2818.54 5825.37 2798.54 5817.37 2792.54C5788.37 2768.54 5682.37 2719.54 5643.37 2712.54C5620.37 2708.54 5592.37 2693.54 5576.37 2677.54C5552.37 2653.54 5548.37 2642.54 5548.37 2590.54C5548.37 2557.54 5555.37 2511.54 5564.37 2487.54C5597.37 2395.54 5576.37 2293.54 5519.37 2263.54C5491.37 2249.54 5485.37 2249.54 5459.37 2262.54C5393.37 2297.54 5328.37 2393.54 5259.37 2559.54C5217.37 2661.54 5202.37 2673.54 5123.37 2673.54C5065.37 2673.54 5056.37 2670.54 5026.37 2641.54C4984.37 2600.54 4905.37 2565.54 4876.37 2574.54C4835.37 2587.54 4746.37 2682.54 4706.37 2756.54C4684.37 2796.54 4658.37 2833.54 4648.37 2838.54C4609.37 2859.54 4526.37 2849.54 4463.37 2817.54C4411.37 2791.54 4396.37 2787.54 4353.37 2793.54C4190.37 2812.54 4088.37 2907.54 4043.37 3083.54C4021.37 3171.54 4002.37 3192.54 3943.37 3196.54C3871.37 3201.54 3849.37 3192.54 3832.37 3153.54C3824.37 3134.54 3807.37 3112.54 3795.37 3103.54C3774.37 3089.54 3766.37 3089.54 3729.37 3102.54C3670.37 3124.54 3603.37 3172.54 3578.37 3213.54C3563.37 3237.54 3554.37 3272.54 3550.37 3315.54L3545.37 3381.54L3591.37 3375.54C3743.37 3354.54 3892.37 3346.54 4043.37 3351.54C4323.37 3359.54 4460.37 3337.54 4633.37 3254.54C4748.37 3199.54 4914.37 3089.54 5001.37 3010.54L5068.37 2948.54L5131.37 2948.54C5199.37 2949.54 5222.37 2960.54 5238.37 3002.54C5258.37 3055.54 5249.37 3093.54 5193.37 3199.54C5162.37 3256.54 5099.37 3380.54 5052.37 3473.54C4890.37 3794.54 4825.37 3884.54 4665.37 4009.54C4446.37 4180.54 4229.37 4271.54 3821.37 4364.54C3718.37 4387.54 3677.37 4391.54 3493.37 4394.54C3235.37 4399.54 3146.37 4390.54 2940.37 4338.54C2734.37 4286.54 2653.37 4259.54 2517.37 4199.54C2325.37 4113.54 2136.37 3978.54 2038.37 3856.54C1977.37 3781.54 1900.37 3650.54 1827.37 3499.54C1794.37 3431.54 1733.37 3313.54 1692.37 3237.54C1634.37 3129.54 1618.37 3091.54 1618.37 3058.54C1618.37 2977.54 1648.37 2949.54 1735.37 2948.54L1797.37 2948.54L1870.37 3014.54C2019.37 3147.54 2238.37 3274.54 2398.37 3317.54C2506.37 3347.54 2629.37 3356.54 2823.37 3351.54C2974.37 3346.54 3123.37 3354.54 3275.37 3375.54L3321.37 3381.54L3316.37 3317.54C3313.37 3281.54 3303.37 3238.54 3294.37 3220.54C3274.37 3181.54 3198.37 3124.54 3139.37 3103.54C3099.37 3090.54 3093.37 3090.54 3067.37 3105.54C3051.37 3115.54 3038.37 3130.54 3038.37 3140.54C3038.37 3177.54 3002.37 3198.54 2940.37 3198.54C2865.37 3198.54 2847.37 3180.54 2819.37 3075.54C2797.37 2996.54 2766.37 2935.54 2719.37 2884.54C2684.37 2845.54 2587.37 2801.54 2521.37 2792.54C2473.37 2786.54 2460.37 2789.54 2404.37 2817.54C2338.37 2849.54 2257.37 2859.54 2218.37 2838.54C2208.37 2833.54 2183.37 2798.54 2162.37 2761.54C2120.37 2685.54 2049.37 2604.54 2005.37 2581.54C1978.37 2568.54 1971.37 2568.54 1930.37 2584.54C1905.37 2593.54 1867.37 2617.54 1845.37 2637.54C1808.37 2670.54 1801.37 2673.54 1741.37 2673.54C1683.37 2673.54 1674.37 2670.54 1653.37 2647.54C1641.37 2632.54 1616.37 2585.54 1598.37 2542.54C1533.37 2385.54 1473.37 2296.54 1407.37 2262.54C1381.37 2249.54 1375.37 2249.54 1348.37 2263.54C1288.37 2294.54 1268.37 2393.54 1302.37 2487.54C1311.37 2511.54 1318.37 2557.54 1318.37 2589.54C1318.37 2666.54 1297.37 2689.54 1195.37 2722.54C1094.37 2756.54 1040.37 2790.54 1022.37 2834.54C1009.37 2864.54 1009.37 2872.54 1022.37 2897.54C1043.37 2936.54 1091.37 2975.54 1135.37 2987.54C1198.37 3005.54 1218.37 3032.54 1218.37 3103.54C1218.37 3160.54 1214.37 3171.54 1163.37 3255.54C1132.37 3306.54 1101.37 3372.54 1093.37 3406.54C1079.37 3461.54 1079.37 3470.54 1093.37 3505.54C1138.37 3612.54 1243.37 3644.54 1372.37 3588.54C1426.37 3565.54 1533.37 3561.54 1559.37 3581.54C1586.37 3601.54 1598.37 3635.54 1598.37 3686.54C1598.37 3730.54 1593.37 3743.54 1552.37 3794.54C1493.37 3870.54 1458.37 3939.54 1458.37 3980.54C1459.37 4060.54 1557.37 4187.54 1658.37 4238.54C1732.37 4275.54 1867.37 4308.54 1945.37 4308.54C1993.37 4308.54 2021.37 4302.54 2058.37 4283.54C2143.37 4240.54 2232.37 4255.54 2258.37 4318.54C2279.37 4369.54 2266.37 4444.54 2230.37 4481.54C2194.37 4518.54 2168.37 4575.54 2168.37 4616.54C2168.37 4662.54 2225.37 4763.54 2275.37 4807.54C2328.37 4854.54 2411.37 4888.54 2473.37 4888.54C2527.37 4888.54 2567.37 4858.54 2597.37 4794.54C2625.37 4733.54 2650.37 4718.54 2721.37 4718.54C2796.37 4718.54 2821.37 4741.54 2838.37 4824.54C2879.37 5026.54 3119.37 5242.54 3343.37 5278.54C3406.37 5289.54 3531.37 5281.54 3590.37 5263.54ZM3295.37 4101.54C3291.37 4063.54 3288.37 4016.54 3288.37 3996.54L3288.37 3958.54L3183.37 3958.54L3078.37 3958.54L3078.37 4047.54L3078.37 4135.54L3161.37 4150.54C3206.37 4159.54 3256.37 4166.54 3272.37 4167.54L3301.37 4168.54ZM3695.37 4151.54L3788.37 4135.54L3788.37 4046.54L3788.37 3958.54L3683.37 3958.54L3578.37 3958.54L3578.37 3986.54C3578.37 4002.54 3575.37 4049.54 3572.37 4091.54C3564.37 4181.54 3554.37 4176.54 3695.37 4151.54ZM2878.37 4004.54L2878.37 3930.54L2811.37 3915.54C2773.37 3907.54 2743.37 3900.54 2742.37 3901.54C2741.37 3902.54 2738.37 3933.54 2735.37 3969.54L2729.37 4034.54L2791.37 4055.54C2882.37 4086.54 2878.37 4088.54 2878.37 4004.54ZM4069.37 4056.54L4135.37 4035.54L4130.37 3969.54C4128.37 3933.54 4125.37 3902.54 4124.37 3901.54C4124.37 3900.54 4093.37 3907.54 4056.37 3915.54L3988.37 3930.54L3988.37 4004.54C3988.37 4045.54 3991.37 4078.54 3995.37 4078.54C3999.37 4078.54 4032.37 4068.54 4069.37 4056.54ZM2488.37 3870.54C2488.37 3831.54 2488.37 3831.54 2416.37 3803.54C2336.37 3772.54 2333.37 3771.54 2333.37 3792.54C2333.37 3808.54 2456.37 3908.54 2476.37 3908.54C2483.37 3908.54 2488.37 3894.54 2488.37 3870.54ZM4475.37 3851.54C4513.37 3822.54 4537.37 3798.54 4536.37 3788.54C4532.37 3770.54 4533.37 3770.54 4446.37 3805.54C4378.37 3831.54 4378.37 3831.54 4378.37 3871.54C4378.37 3919.54 4384.37 3917.54 4475.37 3851.54ZM3282.37 3676.54C3278.37 3636.54 3271.37 3600.54 3265.37 3596.54C3259.37 3593.54 3230.37 3587.54 3199.37 3584.54C3168.37 3580.54 3125.37 3575.54 3104.37 3572.54L3065.37 3566.54L3071.37 3613.54C3075.37 3639.54 3078.37 3680.54 3078.37 3704.54L3078.37 3748.54L3184.37 3748.54L3289.37 3748.54ZM3788.37 3696.54C3788.37 3667.54 3791.37 3626.54 3795.37 3604.54L3801.37 3566.54L3762.37 3572.54C3741.37 3575.54 3698.37 3580.54 3667.37 3584.54C3636.37 3587.54 3606.37 3593.54 3601.37 3596.54C3595.37 3600.54 3587.37 3636.54 3583.37 3676.54L3576.37 3748.54L3682.37 3748.54L3788.37 3748.54ZM2865.37 3642.54C2863.37 3606.54 2858.37 3574.54 2855.37 3571.54C2851.37 3568.54 2829.37 3569.54 2804.37 3572.54C2760.37 3579.54 2759.37 3580.54 2752.37 3624.54C2749.37 3649.54 2748.37 3671.54 2751.37 3674.54C2756.37 3679.54 2843.37 3705.54 2862.37 3707.54C2867.37 3708.54 2868.37 3678.54 2865.37 3642.54ZM4058.37 3694.54L4113.37 3681.54L4110.37 3633.54C4109.37 3606.54 4106.37 3583.54 4104.37 3580.54C4102.37 3578.54 4078.37 3576.54 4051.37 3575.54L4003.37 3573.54L4000.37 3641.54C3998.37 3678.54 3998.37 3708.54 4000.37 3708.54C4002.37 3707.54 4028.37 3701.54 4058.37 3694.54ZM2498.37 3583.54C2498.37 3574.54 2489.37 3568.54 2476.37 3568.54C2454.37 3569.54 2453.37 3569.54 2472.37 3583.54C2497.37 3602.54 2498.37 3602.54 2498.37 3583.54ZM4408.37 3573.54C4408.37 3570.54 4399.37 3568.54 4388.37 3568.54C4377.37 3568.54 4368.37 3575.54 4368.37 3583.54C4368.37 3596.54 4372.37 3597.54 4388.37 3588.54C4399.37 3582.54 4408.37 3575.54 4408.37 3573.54ZM895.373 3208.54L916.373 3163.54L879.373 3131.54C858.373 3114.54 826.373 3071.54 808.373 3036.54C777.373 2978.54 774.373 2966.54 774.373 2883.54C773.373 2710.54 834.373 2607.54 978.373 2538.54L1049.37 2503.54L1041.37 2438.54C1037.37 2402.54 1033.37 2328.54 1033.37 2272.54C1033.37 2176.54 1034.37 2170.54 1062.37 2134.54C1082.37 2108.54 1115.37 2084.54 1167.37 2059.54C1242.37 2024.54 1245.37 2023.54 1368.37 2023.54C1488.37 2023.54 1495.37 2024.54 1546.37 2052.54C1625.37 2096.54 1717.37 2199.54 1764.37 2297.54C1798.37 2367.54 1806.37 2378.54 1823.37 2372.54C1834.37 2368.54 1894.37 2363.54 1955.37 2361.54C2059.37 2357.54 2072.37 2358.54 2123.37 2382.54C2187.37 2411.54 2279.37 2494.54 2314.37 2555.54C2338.37 2594.54 2340.37 2596.54 2371.37 2587.54C2418.37 2574.54 2546.37 2576.54 2631.37 2592.54C2788.37 2622.54 2908.37 2715.54 2975.37 2857.54L3012.37 2936.54L3113.37 2940.54C3198.37 2944.54 3221.37 2948.54 3268.37 2972.54C3338.37 3008.54 3393.37 3052.54 3415.37 3088.54L3431.37 3116.54L3458.37 3080.54C3491.37 3034.54 3548.37 2994.54 3625.37 2962.54C3670.37 2944.54 3702.37 2938.54 3768.37 2938.54L3853.37 2938.54L3891.37 2858.54C3959.37 2712.54 4075.37 2623.54 4234.37 2592.54C4319.37 2576.54 4447.37 2573.54 4494.37 2587.54C4523.37 2595.54 4526.37 2593.54 4551.37 2553.54C4591.37 2490.54 4681.37 2410.54 4744.37 2381.54C4796.37 2358.54 4807.37 2356.54 4911.37 2361.54C4973.37 2363.54 5032.37 2369.54 5043.37 2372.54C5060.37 2378.54 5068.37 2368.54 5101.37 2298.54C5145.37 2203.54 5240.37 2097.54 5320.37 2052.54C5371.37 2024.54 5378.37 2023.54 5498.37 2023.54C5621.37 2023.54 5624.37 2024.54 5699.37 2059.54C5751.37 2084.54 5784.37 2108.54 5804.37 2134.54C5831.37 2169.54 5833.37 2177.54 5833.37 2267.54C5833.37 2320.54 5829.37 2395.54 5825.37 2433.54L5816.37 2503.54L5882.37 2535.54C6007.37 2597.54 6066.37 2673.54 6089.37 2802.54C6095.37 2839.54 6097.37 2893.54 6093.37 2923.54C6085.37 2994.54 6036.37 3090.54 5988.37 3130.54L5951.37 3162.54L5971.37 3210.54C5990.37 3257.54 5992.37 3258.54 6033.37 3258.54C6086.37 3258.54 6158.37 3237.54 6196.37 3210.54C6232.37 3183.54 6282.37 3090.54 6298.37 3017.54C6309.37 2967.54 6308.37 2946.54 6289.37 2846.54C6264.37 2710.54 6261.37 2540.54 6283.37 2458.54C6307.37 2366.54 6362.37 2269.54 6473.37 2123.54C6532.37 2046.54 6594.37 1958.54 6613.37 1928.54C6710.37 1768.54 6702.37 1635.54 6590.37 1553.54C6535.37 1512.54 6482.37 1494.54 6377.37 1477.54C6312.37 1467.54 6293.37 1468.54 6252.37 1481.54C6122.37 1523.54 5975.37 1529.54 5852.37 1498.54L5773.37 1478.54L5755.37 1502.54C5717.37 1555.54 5682.37 1567.54 5543.37 1574.54C5462.37 1578.54 5399.37 1577.54 5376.37 1570.54C5341.37 1560.54 5339.37 1561.54 5348.37 1578.54C5354.37 1588.54 5358.37 1624.54 5358.37 1657.54C5358.37 1735.54 5338.37 1758.54 5273.37 1758.54C5179.37 1758.54 5121.37 1802.54 5054.37 1921.54C4992.37 2031.54 4930.37 2101.54 4841.37 2158.54C4742.37 2223.54 4672.37 2241.54 4527.37 2236.54L4413.37 2233.54L4263.37 2161.54C4053.37 2060.54 4007.37 2048.54 3841.37 2048.54C3712.37 2048.54 3706.37 2047.54 3683.37 2023.54C3662.37 2003.54 3658.37 1989.54 3658.37 1941.54C3658.37 1906.54 3664.37 1874.54 3672.37 1862.54C3680.37 1851.54 3722.37 1821.54 3765.37 1796.54C3887.37 1725.54 3941.37 1676.54 4016.37 1571.54C4115.37 1433.54 4176.37 1378.54 4303.37 1315.54C4414.37 1260.54 4500.37 1237.54 4626.37 1231.54L4739.37 1225.54L4706.37 1203.54C4624.37 1148.54 4539.37 1146.54 4419.37 1196.54C4321.37 1238.54 4246.37 1294.54 4073.37 1458.54C3920.37 1604.54 3828.37 1681.54 3715.37 1762.54C3659.37 1802.54 3644.37 1808.54 3600.37 1808.54C3534.37 1808.54 3518.37 1792.54 3518.37 1725.54C3518.37 1696.54 3522.37 1668.54 3526.37 1662.54C3530.37 1656.54 3567.37 1622.54 3608.37 1587.54C3649.37 1552.54 3777.37 1433.54 3893.37 1324.54C4123.37 1105.54 4203.37 1047.54 4335.37 998.542C4409.37 971.542 4441.37 964.542 4534.37 960.542C4719.37 952.542 4802.37 981.542 4914.37 1092.54C4953.37 1132.54 5019.37 1215.54 5062.37 1281.54C5104.37 1345.54 5141.37 1398.54 5143.37 1398.54C5145.37 1398.54 5138.37 1377.54 5126.37 1351.54C5109.37 1313.54 5104.37 1282.54 5104.37 1206.54L5103.37 1108.54L5075.37 1108.54C5024.37 1108.54 4919.37 1039.54 4803.37 929.542C4679.37 812.542 4597.37 758.542 4495.37 726.542C4352.37 683.542 4226.37 716.542 4077.37 836.542C4003.37 896.542 3963.37 941.542 3826.37 1118.54C3755.37 1211.54 3685.37 1280.54 3620.37 1323.54C3585.37 1346.54 3571.37 1350.54 3531.37 1345.54C3475.37 1339.54 3458.37 1320.54 3458.37 1262.54C3458.37 1226.54 3466.37 1210.54 3511.37 1155.54C3539.37 1119.54 3599.37 1043.54 3642.37 987.542C3795.37 787.542 3824.37 755.542 3908.37 682.542C4050.37 558.542 4161.37 511.542 4334.37 501.542C4436.37 495.542 4532.37 507.542 4610.37 534.542C4631.37 541.542 4648.37 545.542 4648.37 542.542C4648.37 533.542 4461.37 415.542 4388.37 378.542C4255.37 312.542 4045.37 230.542 3968.37 214.542C3726.37 165.542 3138.37 165.542 2898.37 214.542C2822.37 230.542 2595.37 319.542 2464.37 385.542C2398.37 418.542 2206.37 539.542 2211.37 545.542C2213.37 546.542 2243.37 538.542 2278.37 526.542C2367.37 496.542 2593.37 494.542 2682.37 522.542C2858.37 575.542 3000.37 691.542 3174.37 923.542C3224.37 989.542 3298.37 1084.54 3337.37 1133.54C3409.37 1222.54 3410.37 1224.54 3405.37 1272.54C3400.37 1331.54 3381.37 1348.54 3324.37 1348.54C3248.37 1348.54 3133.37 1248.54 2988.37 1053.54C2819.37 829.542 2669.37 720.542 2513.37 710.542C2368.37 701.542 2237.37 762.542 2078.37 915.542C1960.37 1028.54 1842.37 1108.54 1793.37 1108.54L1763.37 1108.54L1762.37 1201.54C1761.37 1269.54 1756.37 1307.54 1740.37 1347.54C1714.37 1414.54 1718.37 1410.54 1808.37 1273.54C1980.37 1014.54 2086.37 951.542 2328.37 960.542C2426.37 964.542 2456.37 970.542 2532.37 998.542C2661.37 1046.54 2746.37 1108.54 2966.37 1317.54C3074.37 1420.54 3190.37 1529.54 3223.37 1558.54C3256.37 1587.54 3298.37 1624.54 3316.37 1640.54C3345.37 1665.54 3348.37 1674.54 3348.37 1723.54C3348.37 1793.54 3333.37 1808.54 3264.37 1808.54C3215.37 1808.54 3206.37 1804.54 3122.37 1742.54C3005.37 1654.54 2940.37 1598.54 2784.37 1450.54C2622.37 1296.54 2543.37 1237.54 2450.37 1198.54C2328.37 1146.54 2232.37 1148.54 2158.37 1203.54L2128.37 1225.54L2240.37 1231.54C2368.37 1238.54 2452.37 1260.54 2568.37 1318.54C2680.37 1374.54 2750.37 1437.54 2845.37 1565.54C2933.37 1684.54 2990.37 1734.54 3115.37 1804.54C3195.37 1849.54 3208.37 1868.54 3208.37 1941.54C3208.37 1989.54 3204.37 2003.54 3183.37 2024.54C3160.37 2047.54 3154.37 2048.54 3036.37 2047.54C2863.37 2046.54 2824.37 2056.54 2603.37 2162.54L2453.37 2233.54L2334.37 2236.54C2232.37 2239.54 2206.37 2237.54 2145.37 2217.54C2007.37 2173.54 1911.37 2087.54 1809.37 1918.54C1738.37 1799.54 1698.37 1769.54 1603.37 1759.54C1554.37 1754.54 1532.37 1747.54 1522.37 1733.54C1506.37 1711.54 1503.37 1606.54 1518.37 1578.54C1527.37 1561.54 1525.37 1560.54 1490.37 1570.54C1439.37 1584.54 1204.37 1572.54 1168.37 1553.54C1152.37 1545.54 1129.37 1525.54 1116.37 1508.54L1092.37 1478.54L1014.37 1498.54C891.373 1529.54 732.373 1522.54 619.373 1481.54C581.373 1467.54 564.373 1467.54 489.373 1478.54C367.373 1496.54 303.373 1522.54 248.373 1577.54C192.373 1633.54 175.373 1686.54 188.373 1767.54C202.373 1852.54 247.373 1932.54 377.373 2103.54C505.373 2270.54 568.373 2383.54 587.373 2476.54C604.373 2559.54 600.373 2713.54 578.373 2834.54C552.373 2969.54 557.373 3024.54 604.373 3118.54C653.373 3216.54 725.373 3260.54 828.373 3255.54C871.373 3253.54 874.373 3251.54 895.373 3208.54ZM2459.37 1954.54C2532.37 1916.54 2626.37 1875.54 2711.37 1845.54C2728.37 1839.54 2726.37 1834.54 2695.37 1796.54C2677.37 1772.54 2651.37 1736.54 2639.37 1716.54C2607.37 1663.54 2505.37 1572.54 2440.37 1539.54C2368.37 1503.54 2256.37 1468.54 2212.37 1468.54C2160.37 1468.54 2077.37 1501.54 1992.37 1555.54C1950.37 1581.54 1914.37 1606.54 1911.37 1611.54C1909.37 1615.54 1922.37 1636.54 1940.37 1656.54C1959.37 1677.54 1989.37 1721.54 2008.37 1753.54C2057.37 1842.54 2105.37 1901.54 2158.37 1942.54C2262.37 2021.54 2326.37 2024.54 2459.37 1954.54ZM4655.37 1975.54C4721.37 1941.54 4798.37 1860.54 4844.37 1776.54C4865.37 1737.54 4900.37 1686.54 4920.37 1663.54C4941.37 1639.54 4958.37 1618.54 4958.37 1615.54C4958.37 1612.54 4921.37 1586.54 4876.37 1557.54C4784.37 1498.54 4712.37 1469.54 4657.37 1468.54C4613.37 1468.54 4506.37 1500.54 4430.37 1536.54C4367.37 1565.54 4260.37 1661.54 4227.37 1716.54C4215.37 1737.54 4189.37 1772.54 4171.37 1796.54C4140.37 1834.54 4138.37 1839.54 4155.37 1844.54C4222.37 1868.54 4347.37 1923.54 4423.37 1963.54C4503.37 2004.54 4518.37 2009.54 4560.37 2004.54C4585.37 2001.54 4628.37 1988.54 4655.37 1975.54ZM1418.37 1303.54C1457.37 1283.54 1498.37 1227.54 1498.37 1195.54C1498.37 1152.54 1460.37 1121.54 1401.37 1114.54L1350.37 1108.54L1355.37 1145.54C1357.37 1166.54 1352.37 1205.54 1344.37 1233.54C1330.37 1278.54 1330.37 1284.54 1345.37 1300.54C1365.37 1322.54 1380.37 1323.54 1418.37 1303.54ZM5518.37 1300.54C5536.37 1285.54 5538.37 1279.54 5529.37 1255.54C5523.37 1239.54 5518.37 1200.54 5518.37 1167.54L5518.37 1107.54L5466.37 1114.54C5437.37 1118.54 5407.37 1125.54 5400.37 1131.54C5380.37 1147.54 5360.37 1191.54 5366.37 1208.54C5381.37 1253.54 5451.37 1318.54 5484.37 1318.54C5491.37 1318.54 5506.37 1310.54 5518.37 1300.54ZM955.373 1233.54C1034.37 1197.54 1070.37 1167.54 1098.37 1115.54C1126.37 1062.54 1162.37 1038.54 1212.37 1038.54L1248.37 1038.54L1248.37 970.542C1248.37 853.542 1284.37 831.542 1460.37 842.542C1550.37 847.542 1575.37 846.542 1604.37 832.542C1657.37 807.542 1662.37 787.542 1633.37 732.542C1619.37 706.542 1608.37 673.542 1608.37 659.542C1608.37 645.542 1602.37 611.542 1594.37 583.542C1567.37 480.542 1520.37 425.542 1491.37 464.542C1474.37 487.542 1475.37 506.542 1493.37 538.542C1515.37 577.542 1512.37 660.542 1487.37 692.542C1469.37 715.542 1459.37 718.542 1407.37 718.542C1374.37 718.542 1338.37 713.542 1328.37 708.542C1318.37 702.542 1286.37 656.542 1257.37 605.542C1229.37 555.542 1190.37 494.542 1172.37 471.542C1137.37 428.542 1051.37 378.542 1011.37 378.542C953.373 378.542 865.373 449.542 875.373 487.542C884.373 522.542 946.373 585.542 992.373 606.542C1016.37 618.542 1044.37 638.542 1052.37 650.542C1076.37 684.542 1073.37 769.542 1047.37 802.542C1029.37 825.542 1020.37 828.542 963.373 828.542C913.373 828.542 883.373 821.542 818.373 793.542C716.373 749.542 656.373 734.542 623.373 742.542C590.373 751.542 591.373 761.542 635.373 809.542C693.373 873.542 732.373 888.542 843.373 888.542C965.373 888.542 978.373 898.542 978.373 991.542C978.373 1031.54 972.373 1061.54 963.373 1075.54C945.373 1101.54 891.373 1118.54 825.373 1118.54C772.373 1118.54 658.373 1168.54 658.373 1192.54C658.373 1200.54 670.373 1214.54 685.373 1224.54C762.373 1274.54 859.373 1277.54 955.373 1233.54ZM6157.37 1235.54C6182.37 1222.54 6204.37 1204.54 6206.37 1195.54C6211.37 1170.54 6101.37 1118.54 6041.37 1118.54C5975.37 1118.54 5921.37 1101.54 5903.37 1075.54C5894.37 1061.54 5888.37 1031.54 5888.37 991.542C5888.37 899.542 5902.37 888.542 6021.37 888.542C6131.37 888.542 6175.37 871.542 6231.37 810.542C6274.37 762.542 6276.37 752.542 6247.37 743.542C6215.37 733.542 6162.37 746.542 6061.37 789.542C5985.37 821.542 5956.37 828.542 5904.37 828.542C5846.37 828.542 5837.37 825.542 5819.37 802.542C5796.37 773.542 5790.37 692.542 5808.37 658.542C5814.37 647.542 5840.37 626.542 5866.37 612.542C5929.37 576.542 5956.37 550.542 5979.37 506.542C5997.37 470.542 5997.37 470.542 5977.37 444.542C5952.37 413.542 5888.37 378.542 5855.37 378.542C5815.37 378.542 5729.37 428.542 5694.37 471.542C5676.37 494.542 5637.37 555.542 5609.37 605.542C5580.37 656.542 5548.37 702.542 5538.37 708.542C5528.37 713.542 5492.37 718.542 5459.37 718.542C5407.37 718.542 5397.37 715.542 5379.37 692.542C5353.37 659.542 5351.37 595.542 5374.37 538.542C5392.37 493.542 5382.37 448.542 5354.37 448.542C5318.37 448.542 5258.37 576.542 5258.37 653.542C5258.37 671.542 5247.37 706.542 5233.37 732.542C5213.37 770.542 5210.37 783.542 5219.37 799.542C5239.37 838.542 5288.37 849.542 5406.37 842.542C5582.37 831.542 5618.37 853.542 5618.37 970.542L5618.37 1038.54L5656.37 1038.54C5704.37 1038.54 5730.37 1057.54 5772.37 1123.54C5809.37 1180.54 5864.37 1219.54 5953.37 1251.54C6017.37 1273.54 6095.37 1268.54 6157.37 1235.54Z" sodipodi:nodetypes="ccccccccccccccccccccccccccccccccccccccccccccccccccccccccccccccccccccccccccccccccccccccccccccccccccccccccccccccccccccccccccccccccccccccccccccccccccccccccccccccccccccccccccccccccccccccccccccccccccccccccccccccccccccccccccccccccccccccccccccccccccccccccccccccccccccccccccccccccccccccccccccccccccccccccccccccccccccccccccccccccccccccccccccccccccccccccccccccccccccccccccccccccccccccccccccccccccccccccccccccccccccccccccccccccccccccccccccccccccccccccccccccccccccccccccccccccccccccccccccccccccccccccccccccccccccccccccccccccccccccccccccccccccccccccccccccccccccccccccccccccccccccccccccccccccccccccccccccc"/>
   <path id="p9609sdXc" transform="translate(3000, 3220)" fill="#09070d" stroke-opacity="0" stroke="#000000" stroke-width="0" stroke-linecap="square" stroke-linejoin="bevel" d="M645 701C579 684 522 643 426 545L325 443L236 432C112 416 45 384 20 328C9 304 0 263 0 234C0 97 88 0 214 0C286 0 300 14 300 88C300 135 296 148 274 171L248 198L306 205C448 221 501 249 597 356C676 444 702 460 765 460C827 460 855 444 924 365C1023 252 1086 219 1224 204L1282 198L1256 171C1234 148 1230 135 1230 82C1230 10 1240 0 1320 0C1450 0 1544 118 1527 261C1524 288 1513 324 1503 341C1478 382 1401 417 1305 431C1262 437 1214 448 1199 456C1184 463 1137 508 1094 554C1041 613 998 649 956 671C899 702 887 704 785 707C725 708 662 706 645 701Z" sodipodi:nodetypes="ccccccccccccccccccccccccccc"/>
   <path id="pcuNUSfn5" transform="translate(2510, 2671.20251459834)" fill="#09070d" stroke-opacity="0" stroke="#000000" stroke-width="0" stroke-linecap="square" stroke-linejoin="bevel" d="M73 323.797C25 303.797 0 245.797 0 157.797C0 31.7975 42 -6.20251 174 0.797485C241 3.79749 252 7.79749 279 32.7975C320 71.7975 334 118.797 327 194.797C321 269.797 301 304.797 255 324.797C212 342.797 115 341.797 73 323.797Z" sodipodi:nodetypes="ccccccc"/>
   <path id="p1BWoU178p" transform="translate(4690, 2671.21667955499)" fill="#09070d" stroke-opacity="0" stroke="#000000" stroke-width="0" stroke-linecap="square" stroke-linejoin="bevel" d="M70 320.783C22 297.783 0 249.783 0 170.783C0 102.783 13 67.7833 55 28.7833C77 7.78332 93 3.78332 156 0.78332C287 -6.21668 330 32.7833 330 154.783C329 245.783 304 303.783 256 323.783C207 344.783 113 342.783 70 320.783Z" sodipodi:nodetypes="ccccccc"/>
  </g>
 </g><g id="l6nqCJvC3T8hcmcpv60Iyzm" transform="matrix(0.072 0 0 0.072 0 0)" fill="none">
  <g id="group1" fill="none">
   <path id="p14rnHqM0t" transform="translate(2395.52101985874, 2550.375)" fill="#ff000b" stroke-opacity="0" stroke="#000000" stroke-width="0" stroke-linecap="square" stroke-linejoin="bevel" d="M150.479 544.625C89.479 521.625 26.479 468.625 12.479 429.625C-1.52102 390.625 -4.52102 234.625 7.47898 178.625C17.479 127.625 84.479 55.625 150.479 23.625C198.479 -0.375 213.479 -2.375 282.479 1.625C398.479 8.625 480.479 56.625 527.479 144.625C545.479 177.625 549.479 201.625 549.479 284.625C549.479 426.625 536.479 448.625 421.479 508.625C343.479 548.625 323.479 554.625 261.479 556.625C216.479 558.625 174.479 553.625 150.479 544.625ZM363.479 402.625C396.479 377.625 418.479 310.625 409.479 263.625C406.479 243.625 388.479 212.625 371.479 192.625C313.479 129.625 206.479 135.625 164.479 204.625C123.479 270.625 152.479 385.625 217.479 415.625C258.479 433.625 328.479 427.625 363.479 402.625Z" sodipodi:nodetypes="cccccccccccccccc"/>
   <path id="pOCR6oe7m" transform="translate(4580.44655719722, 2550)" fill="#ff000b" stroke-opacity="0" stroke="#000000" stroke-width="0" stroke-linecap="square" stroke-linejoin="bevel" d="M139.553 512C21.5534 451 6.55344 428 1.55344 297C-2.44656 215 -0.446557 204 28.5534 146C75.5534 50 165.553 0 287.553 0C367.553 0 426.553 24 482.553 78C538.553 132 551.553 164 557.553 261C563.553 368 546.553 444 510.553 477C456.553 526 388.553 553 309.553 557C235.553 561 232.553 561 139.553 512ZM335.553 415C400.553 388 430.553 272 389.553 205C322.553 96 139.553 160 139.553 292C139.553 394 237.553 456 335.553 415Z" sodipodi:nodetypes="ccccccccccccc"/>
  </g>
 </g><g id="l6g4IcNd1KxlmkAkqc75UpP" transform="matrix(0.072 0 0 0.072 0 0)" fill="none">
  <g id="group2" fill="none">
   <path id="pku50NfjF" transform="translate(3682.29376704883, 6561.5)" fill="#fffffe" stroke-opacity="0" stroke="#000000" stroke-width="0" stroke-linecap="square" stroke-linejoin="bevel" d="M5.70623 1.5C17.7062 -0.5 37.7062 -0.5 50.7062 1.5C62.7062 3.5 52.7062 5.5 27.7062 5.5C2.70623 5.5 -7.29377 3.5 5.70623 1.5Z" sodipodi:nodetypes="cccc"/>
   <path id="pn0JmFkya" transform="translate(3782.29376704883, 6561.5)" fill="#fffffe" stroke-opacity="0" stroke="#000000" stroke-width="0" stroke-linecap="square" stroke-linejoin="bevel" d="M5.70623 1.5C17.7062 -0.5 37.7062 -0.5 50.7062 1.5C62.7062 3.5 52.7062 5.5 27.7062 5.5C2.70623 5.5 -7.29377 3.5 5.70623 1.5Z" sodipodi:nodetypes="cccc"/>
   <path id="pDztN0ZDG" transform="translate(1310, 3289.77117083571)" fill="#fffffe" stroke-opacity="0" stroke="#000000" stroke-width="0" stroke-linecap="square" stroke-linejoin="bevel" d="M2335 3091.23C2110 3053.23 1871 2838.23 1830 2636.23C1804 2507.23 1703 2490.23 1649 2606.23C1637 2630.23 1614 2661.23 1598 2675.23C1572 2697.23 1559 2700.23 1495 2700.23C1355 2700.23 1249 2636.23 1190 2516.23C1139 2412.23 1150 2308.23 1220 2235.23C1236 2219.23 1252 2193.23 1255 2179.23C1264 2142.23 1238 2096.23 1200 2080.23C1171 2068.23 1163 2069.23 1114 2093.23C1067 2116.23 1047 2120.23 967 2120.23C789 2120.23 634 2064.23 542 1966.23C413 1830.23 414 1713.23 544 1546.23C592 1485.23 598 1464.23 578 1427.23C551 1376.23 502 1367.23 425 1400.23C280 1462.23 145 1433.23 92 1330.23C51 1248.23 71 1146.23 155 1007.23C217 905.229 224 867.229 186 831.229C173 819.229 147 805.229 127 799.229C57 780.229 0 713.229 0 650.229C0 567.229 51 519.229 187 474.229C315 432.229 326 409.229 285 260.229C246 115.229 297 0.228829 400 0.228829C488 0.228829 567 92.2288 650 294.229C693 397.229 717 424.229 764 424.229C791 424.229 808 416.229 832 393.229C898 329.229 998 303.229 1058 334.229C1101 356.229 1173 438.229 1214 513.229C1270 612.229 1293 619.229 1396 569.229C1456 539.229 1465 538.229 1540 543.229C1624 548.229 1713 581.229 1759 623.229C1803 664.229 1850 748.229 1871 827.229C1895 916.229 1920 950.229 1962 950.229C1994 950.229 2030 919.229 2030 892.229C2030 863.229 2089 836.229 2138 843.229C2233 855.229 2339 933.229 2359 1005.23C2365 1027.23 2370 1065.23 2370 1091.23C2370 1116.23 2375 1141.23 2382 1148.23C2399 1165.23 2425 1163.23 2440 1145.23C2452 1131.23 2455 1131.23 2470 1145.23C2490 1163.23 2514 1164.23 2527 1148.23C2533 1141.23 2540 1105.23 2542 1068.23C2549 987.229 2574 942.229 2636 899.229C2753 819.229 2849 821.229 2884 905.229C2899 939.229 2929 956.229 2966 948.229C2992 943.229 3018 901.229 3035 835.229C3070 700.229 3146 603.229 3248 567.229C3275 557.229 3332 546.229 3374 543.229C3445 538.229 3454 539.229 3514 569.229C3618 620.229 3640 613.229 3698 508.229C3737 437.229 3812 354.229 3857 331.229C3912 303.229 4015 332.229 4078 393.229C4116 429.229 4167 435.229 4199 406.229C4210 396.229 4233 353.229 4251 311.229C4302 189.229 4335 128.229 4380 77.2288C4448 1.22883 4506 -17.7712 4571 16.2288C4629 46.2288 4653 156.229 4625 261.229C4594 374.229 4594 396.229 4627 429.229C4645 446.229 4672 460.229 4696 464.229C4749 473.229 4860 532.229 4883 563.229C4910 598.229 4916 669.229 4896 708.229C4877 746.229 4828 783.229 4778 799.229C4733 814.229 4700 852.229 4700 889.229C4700 904.229 4716 943.229 4736 976.229C4819 1112.23 4850 1208.23 4836 1282.23C4812 1409.23 4667 1466.23 4514 1409.23C4402 1368.23 4353 1374.23 4330 1431.23C4313 1470.23 4322 1496.23 4371 1555.23C4468 1672.23 4488 1768.23 4437 1873.23C4405 1937.23 4323 2018.23 4254 2053.23C4175 2093.23 4048 2120.23 3943 2120.23C3863 2120.23 3843 2116.23 3795 2093.23C3742 2067.23 3740 2066.23 3705 2083.23C3642 2113.23 3634 2172.23 3685 2229.23C3732 2281.23 3750 2328.23 3750 2398.23C3750 2505.23 3676 2614.23 3565 2673.23C3536 2688.23 3501 2695.23 3435 2698.23C3349 2702.23 3343 2701.23 3313 2676.23C3296 2662.23 3273 2630.23 3261 2606.23C3208 2492.23 3107 2507.23 3080 2633.23C3042 2816.23 2848 3012.23 2641 3076.23C2585 3093.23 2403 3102.23 2335 3091.23ZM2813 2115.23C3217 2025.23 3438 1932.23 3657 1761.23C3823 1631.23 3872 1562.23 4075 1165.23C4140 1039.23 4204 914.229 4217 889.229C4237 851.229 4239 839.229 4230 815.229C4216 777.229 4192 761.229 4153 760.229C4127 760.229 4107 772.229 4053 822.229C3966 901.229 3800 1011.23 3685 1066.23C3510 1149.23 3360 1174.23 3085 1164.23C2862 1156.23 2556 1187.23 2480 1225.23C2460 1236.23 2450 1236.23 2430 1225.23C2355 1187.23 2048 1156.23 1825 1164.23C1636 1171.23 1502 1160.23 1390 1129.23C1230 1086.23 1011 959.229 862 826.229C781 753.229 743 742.229 702 780.229C659 820.229 663 839.229 744 988.229C785 1065.23 846 1183.23 879 1251.23C952 1402.23 1029 1533.23 1090 1608.23C1188 1730.23 1377 1865.23 1569 1951.23C1705 2011.23 1786 2038.23 1993 2090.23C2196 2141.23 2247 2147.23 2495 2144.23C2670 2142.23 2710 2138.23 2813 2115.23Z" sodipodi:nodetypes="cccccccccccccccccccccccccccccccccccccccccccccccccccccccccccccccccccccccccccccccccccccccccccccccccccccccc"/>
   <path id="pMtjdA7it" transform="translate(3375, 4998.81966011251)" fill="#fffffe" stroke-opacity="0" stroke="#000000" stroke-width="0" stroke-linecap="square" stroke-linejoin="bevel" d="M85 253.18L0 236.18L4 121.18C6 58.1803 9 4.18034 11 2.18034C15 -1.81966 268 0.18034 272 4.18034C273 5.18034 277 66.1803 281 139.18L288 271.18L229 270.18C197 270.18 132 262.18 85 253.18Z" sodipodi:nodetypes="ccccccccc"/>
   <path id="pAVKpwekW" transform="translate(3867, 4997)" fill="#fffffe" stroke-opacity="0" stroke="#000000" stroke-width="0" stroke-linecap="square" stroke-linejoin="bevel" d="M7 141C11 68 15 8 16 7C17 5 77 3 148 2L278 0L284 114C287 177 287 231 284 234C274 245 102 273 49 273L0 273Z" sodipodi:nodetypes="ccccccccc"/>
   <path id="p14gNvJILB" transform="translate(3026.98328639796, 4930)" fill="#fffffe" stroke-opacity="0" stroke="#000000" stroke-width="0" stroke-linecap="square" stroke-linejoin="bevel" d="M98.0167 236C43.0167 218 -0.983286 199 0.0167136 193C1.01671 187 5.01671 142 9.01671 91C13.0167 41 19.0167 0 22.0167 0C25.0167 0 70.0167 9 121.017 21L213.017 42L213.017 151C213.017 210 210.017 261 205.017 264C201.017 266 153.017 254 98.0167 236Z" sodipodi:nodetypes="ccccccccc"/>
   <path id="p1H4J19o3D" transform="translate(4290, 4930)" fill="#fffffe" stroke-opacity="0" stroke="#000000" stroke-width="0" stroke-linecap="square" stroke-linejoin="bevel" d="M6 263C3 259 0 208 0 150L0 42L93 21C143 9 188 0 191 0C194 0 200 40 203 90C207 139 211 184 212 191C216 206 18 275 6 263Z" sodipodi:nodetypes="cccccccc"/>
   <path id="pLiKkZqHc" transform="translate(2601, 4793.84833405238)" fill="#fffffe" stroke-opacity="0" stroke="#000000" stroke-width="0" stroke-linecap="square" stroke-linejoin="bevel" d="M179 220.152C155 206.152 104 170.152 67 140.152L0 86.1517L27 41.1517C42 16.1517 58 -1.84833 64 0.151666C69 3.15167 113 22.1517 162 43.1517L249 81.1517L249 141.152C249 203.152 241 246.152 230 246.152C227 246.152 204 234.152 179 220.152Z" sodipodi:nodetypes="cccccccccc"/>
   <path id="po3JVDmz9" transform="translate(4680, 4793.84015682914)" fill="#fffffe" stroke-opacity="0" stroke="#000000" stroke-width="0" stroke-linecap="square" stroke-linejoin="bevel" d="M6 224.16C3 211.16 0 174.16 0 141.16L0 81.1598L88 43.1598C136 22.1598 180 3.15984 185 0.159843C191 -1.84016 207 15.1598 223 38.1598L250 81.1598L213 114.16C171 152.16 33 246.16 20 246.16C16 246.16 10 236.16 6 224.16Z" sodipodi:nodetypes="cccccccccc"/>
   <path id="p16B91iYUu" transform="translate(3371.86156123669, 4611.54513193181)" fill="#fffffe" stroke-opacity="0" stroke="#000000" stroke-width="0" stroke-linecap="square" stroke-linejoin="bevel" d="M82.1384 241.455L10.1384 237.455L3.13844 122.455C-0.861561 59.4549 -0.861561 4.45487 2.13844 1.45487C9.13844 -5.54513 227.138 14.4549 251.138 24.4549C265.138 29.4549 278.138 113.455 278.138 201.455L278.138 238.455L229.138 238.455C202.138 238.455 174.138 239.455 166.138 241.455C159.138 243.455 121.138 242.455 82.1384 241.455Z" sodipodi:nodetypes="cccccccccc"/>
   <path id="p6nOObDMn" transform="translate(3877, 4607)" fill="#fffffe" stroke-opacity="0" stroke="#000000" stroke-width="0" stroke-linecap="square" stroke-linejoin="bevel" d="M59 245L0 242L7 141C10 85 15 37 18 35C26 27 107 15 197 7L285 0L278 119C274 184 270 239 269 239C265 243 109 248 59 245Z" sodipodi:nodetypes="ccccccccc"/>
   <path id="p1rom6VnA" transform="translate(3047, 4608)" fill="#fffffe" stroke-opacity="0" stroke="#000000" stroke-width="0" stroke-linecap="square" stroke-linejoin="bevel" d="M113 200C94 195 61 186 39 181L0 171L5 96C8 55 13 19 16 15C20 12 56 7 96 4L170 0L177 32C180 50 183 98 183 138C183 220 183 220 113 200Z" sodipodi:nodetypes="cccccccccc"/>
   <path id="phvtQewbH" transform="translate(4301.74516600406, 4615)" fill="#fffffe" stroke-opacity="0" stroke="#000000" stroke-width="0" stroke-linecap="square" stroke-linejoin="bevel" d="M0.254834 103L3.25483 0L80.2548 0C123.255 1 160.255 4 164.255 8C168.255 11 171.255 49 172.255 91L173.255 168L93.2548 186C49.2548 196 9.25483 205 5.25483 205C1.25483 205 -0.745166 159 0.254834 103Z" sodipodi:nodetypes="ccccccccc"/>
   <path id="p3yfhXMkQ" transform="translate(2716.70922519787, 4594.48516283299)" fill="#fffffe" stroke-opacity="0" stroke="#000000" stroke-width="0" stroke-linecap="square" stroke-linejoin="bevel" d="M63.2908 91.5148C5.29077 61.5148 -1.70923 55.5148 0.290775 30.5148C1.29077 15.5148 3.29077 1.51484 5.29077 0.514837C7.29077 -1.48516 40.2908 2.51484 78.2908 9.51484C122.291 16.5148 148.291 25.5148 147.291 33.5148C146.291 39.5148 145.291 63.5148 145.291 85.5148C144.291 107.515 140.291 125.515 136.291 125.515C131.291 125.515 99.2908 110.515 63.2908 91.5148Z" sodipodi:nodetypes="cccccccc"/>
   <path id="pKXKsMULE" transform="translate(4662.64802826763, 4593.87129070824)" fill="#fffffe" stroke-opacity="0" stroke="#000000" stroke-width="0" stroke-linecap="square" stroke-linejoin="bevel" d="M7.35197 94.1287C7.35197 76.1287 4.35197 52.1287 1.35197 40.1287C-3.64803 22.1287 2.35197 19.1287 69.352 9.12871C109.352 4.12871 143.352 -0.871291 144.352 0.128709C145.352 1.12871 147.352 14.1287 149.352 30.1287C152.352 56.1287 147.352 62.1287 87.352 92.1287C51.352 111.129 19.352 126.129 15.352 126.129C10.352 126.129 7.35197 111.129 7.35197 94.1287Z" sodipodi:nodetypes="cccccccc"/>
   <path id="p1DEbckQQk" transform="translate(3135, 6275)" fill="#fffffe" stroke-opacity="0" stroke="#000000" stroke-width="0" stroke-linecap="square" stroke-linejoin="bevel" d="M29 33L0 0L33 29C63 57 70 65 62 65C60 65 46 50 29 33Z" sodipodi:nodetypes="ccccc"/>
   <path id="p1AcwAB2Yp" transform="translate(2750.40574352477, 6161.5)" fill="#fffffe" stroke-opacity="0" stroke="#000000" stroke-width="0" stroke-linecap="square" stroke-linejoin="bevel" d="M6.59426 1.5C24.5943 -0.5 56.5943 -0.5 76.5943 1.5C97.5943 3.5 83.5943 5.5 44.5943 5.5C6.59426 5.5 -10.4057 3.5 6.59426 1.5Z" sodipodi:nodetypes="cccc"/>
   <path id="pHdBv0rGb" transform="translate(4690.40574352477, 6161.5)" fill="#fffffe" stroke-opacity="0" stroke="#000000" stroke-width="0" stroke-linecap="square" stroke-linejoin="bevel" d="M6.59426 1.5C24.5943 -0.5 56.5943 -0.5 76.5943 1.5C97.5943 3.5 83.5943 5.5 44.5943 5.5C6.59426 5.5 -10.4057 3.5 6.59426 1.5Z" sodipodi:nodetypes="cccc"/>
   <path id="p11N0tZnRL" transform="translate(2395, 5975)" fill="#fffffe" stroke-opacity="0" stroke="#000000" stroke-width="0" stroke-linecap="square" stroke-linejoin="bevel" d="M34 38L0 0L38 34C72 67 80 75 72 75C70 75 53 58 34 38Z" sodipodi:nodetypes="ccccc"/>
   <path id="pEM31HLlY" transform="translate(5060.56950036975, 5979.99999999999)" fill="#fffffe" stroke-opacity="0" stroke="#000000" stroke-width="0" stroke-linecap="square" stroke-linejoin="bevel" d="M29.4305 35C48.4305 16 65.4305 0 68.4305 0C71.4305 0 58.4305 16 39.4305 35C20.4305 54 3.4305 70 0.4305 70C-2.5695 70 10.4305 54 29.4305 35Z" sodipodi:nodetypes="ccccc"/>
   <path id="p1DBwNOBq" transform="translate(2215, 5591.50453577436)" fill="#fffffe" stroke-opacity="0" stroke="#000000" stroke-width="0" stroke-linecap="square" stroke-linejoin="bevel" d="M75 19.4955C75 13.4955 58 7.49546 38 5.49546L0 1.49546L43 0.495464C74 -1.50454 85 2.49546 85 13.4955C85 21.4955 83 28.4955 80 28.4955C77 28.4955 75 24.4955 75 19.4955Z" sodipodi:nodetypes="ccccccc"/>
   <path id="pYyGkX0pI" transform="translate(1573, 5016.10297937072)" fill="#fffffe" stroke-opacity="0" stroke="#000000" stroke-width="0" stroke-linecap="square" stroke-linejoin="bevel" d="M0 33.897C0 3.89702 2 -9.10298 4 6.89702C6 21.897 6 45.897 4 61.897C2 76.897 0 63.897 0 33.897Z" sodipodi:nodetypes="cccc"/>
   <path id="pYi68YN8A" transform="translate(5953, 5025.57319877632)" fill="#fffffe" stroke-opacity="0" stroke="#000000" stroke-width="0" stroke-linecap="square" stroke-linejoin="bevel" d="M0 29.4268C0 2.4268 2 -8.5732 4 7.4268C6 22.4268 6 44.4268 4 57.4268C2 69.4268 0 57.4268 0 29.4268Z" sodipodi:nodetypes="cccc"/>
   <path id="p11sC3JKHE" transform="translate(6190.56950036976, 4750)" fill="#fffffe" stroke-opacity="0" stroke="#000000" stroke-width="0" stroke-linecap="square" stroke-linejoin="bevel" d="M29.4305 35C48.4305 16 65.4305 0 68.4305 0C71.4305 0 58.4305 16 39.4305 35C20.4305 54 3.4305 70 0.4305 70C-2.5695 70 10.4305 54 29.4305 35Z" sodipodi:nodetypes="ccccc"/>
   <path id="pL6qSj45s" transform="translate(482.316971528269, 1220)" fill="#fffffe" stroke-opacity="0" stroke="#000000" stroke-width="0" stroke-linecap="square" stroke-linejoin="bevel" d="M598.683 3135C503.683 3114 465.683 3084 422.683 2997C373.683 2898 367.683 2818 396.683 2660C447.683 2383 413.683 2270 196.683 1985C59.683 1805 20.683 1733 5.68303 1629C-10.317 1522 6.68303 1460 66.683 1400C122.683 1344 185.683 1318 307.683 1300C402.683 1286 455.683 1290 537.683 1315C573.683 1327 627.683 1333 697.683 1333C787.683 1334 813.683 1330 881.683 1307C924.683 1292 960.683 1281 961.683 1282C962.683 1284 975.683 1302 990.683 1323C1034.68 1382 1062.68 1391 1200.68 1393C1317.68 1395 1324.68 1394 1380.68 1366C1542.68 1283 1623.68 1087 1561.68 926C1555.68 910 1557.68 909 1575.68 919C1586.68 925 1606.68 930 1619.68 930C1661.68 930 1787.68 842 1897.68 737C2037.68 603 2133.68 550 2278.68 530C2484.68 501 2666.68 607 2867.68 875C3003.68 1058 3139.68 1180 3187.68 1165C3210.68 1158 3231.68 1115 3220.68 1097C3216.68 1090 3179.68 1042 3137.68 990C3095.68 938 3025.68 848 2982.68 790C2821.68 576 2671.68 455 2507.68 406C2422.68 381 2304.68 376 2220.68 393C2068.68 426 1957.68 486 1831.68 603L1747.68 682L1747.68 637C1747.68 583 1767.68 560 1912.68 451C2137.68 280 2254.68 213 2498.68 111C2721.68 19 2853.68 0 3282.68 0C3548.68 0 3725.68 12 3847.68 36C3925.68 52 4134.68 134 4270.68 202C4397.68 265 4672.68 456 4775.68 551C4813.68 587 4817.68 596 4817.68 637L4817.68 683L4744.68 614C4576.68 454 4417.68 385 4222.68 386C4054.68 387 3934.68 436 3787.68 564C3703.68 637 3674.68 669 3521.68 869C3478.68 925 3418.68 1001 3390.68 1037C3361.68 1073 3337.68 1107 3337.68 1114C3337.68 1133 3360.68 1157 3383.68 1164C3423.68 1176 3538.68 1078 3645.68 940C3785.68 759 3822.68 717 3896.68 658C4030.68 550 4158.68 509 4292.68 530C4436.68 553 4537.68 611 4691.68 758C4791.68 855 4903.68 930 4947.68 930C4959.68 930 4978.68 925 4989.68 919C5007.68 909 5009.68 910 5003.68 926C4985.68 973 4976.68 1046 4982.68 1088C4999.68 1201 5083.68 1317 5186.68 1367C5239.68 1393 5249.68 1395 5365.68 1393C5517.68 1391 5535.68 1383 5602.68 1282C5604.68 1281 5640.68 1292 5683.68 1307C5783.68 1341 5925.68 1345 6027.68 1315C6118.68 1289 6179.68 1286 6278.68 1303C6377.68 1321 6415.68 1335 6474.68 1379C6549.68 1434 6578.68 1524 6557.68 1640C6540.68 1735 6500.68 1809 6366.68 1986C6150.68 2273 6115.68 2390 6167.68 2660C6178.68 2718 6187.68 2787 6187.68 2815C6187.68 2922 6130.68 3055 6066.68 3097C6023.68 3125 5896.68 3153 5847.68 3145C5815.68 3140 5809.68 3133 5778.68 3068C5747.68 3004 5745.68 2997 5761.68 2988C5863.68 2931 5928.68 2791 5906.68 2674C5884.68 2553 5824.68 2479 5697.68 2415C5659.68 2396 5627.68 2373 5627.68 2365C5627.68 2357 5634.68 2302 5643.68 2243C5671.68 2054 5651.68 2004 5518.68 1942C5448.68 1908 5436.68 1906 5347.68 1905C5260.68 1905 5247.68 1908 5199.68 1934C5115.68 1981 5025.68 2084 4973.68 2194L4928.68 2288L4886.68 2267C4857.68 2253 4818.68 2245 4761.68 2242C4689.68 2238 4672.68 2241 4623.68 2263C4558.68 2293 4471.68 2372 4426.68 2441C4409.68 2468 4392.68 2490 4388.68 2490C4385.68 2490 4360.68 2483 4333.68 2475C4271.68 2456 4209.68 2456 4113.68 2474C3957.68 2504 3840.68 2594 3773.68 2733C3753.68 2774 3737.68 2815 3737.68 2825C3737.68 2839 3732.68 2841 3710.68 2834C3694.68 2829 3651.68 2825 3612.68 2825C3489.68 2825 3363.68 2901 3310.68 3008L3281.68 3066L3262.68 3021C3237.68 2961 3173.68 2899 3095.68 2858C3039.68 2829 3024.68 2826 2952.68 2826C2908.68 2827 2864.68 2829 2854.68 2831C2840.68 2834 2830.68 2820 2808.68 2768C2738.68 2603 2620.68 2507 2450.68 2474C2355.68 2456 2293.68 2456 2231.68 2475C2204.68 2483 2179.68 2490 2175.68 2490C2171.68 2490 2152.68 2466 2134.68 2438C2089.68 2368 2009.68 2295 1944.68 2265C1875.68 2232 1772.68 2231 1692.68 2261C1661.68 2273 1634.68 2280 1633.68 2278C1631.68 2277 1610.68 2235 1586.68 2186C1535.68 2080 1446.68 1979 1365.68 1934C1317.68 1908 1304.68 1905 1217.68 1905C1128.68 1906 1116.68 1908 1046.68 1942C913.683 2005 892.683 2056 921.683 2251C930.683 2310 937.683 2362 937.683 2368C937.683 2374 903.683 2396 861.683 2417C722.683 2486 653.683 2593 654.683 2736C654.683 2786 661.683 2809 687.683 2859C718.683 2916 761.683 2965 803.683 2988C818.683 2996 816.683 3003 787.683 3064C744.683 3154 724.683 3162 598.683 3135ZM3444.68 2641C3485.68 2619 3529.68 2582 3581.68 2524C3624.68 2478 3671.68 2433 3686.68 2426C3701.68 2418 3748.68 2407 3791.68 2401C3923.68 2382 3987.68 2343 4007.68 2268C4028.68 2191 3978.68 2091 3896.68 2050C3789.68 1995 3731.68 2071 3817.68 2155C3839.68 2176 3857.68 2197 3857.68 2202C3857.68 2217 3819.68 2229 3743.68 2239C3630.68 2253 3572.68 2285 3480.68 2385C3438.68 2431 3390.68 2475 3373.68 2482C3331.68 2499 3219.68 2497 3182.68 2477C3165.68 2469 3119.68 2426 3079.68 2382C2994.68 2288 2937.68 2255 2828.68 2240C2688.68 2220 2684.68 2216 2747.68 2155C2774.68 2128 2787.68 2107 2787.68 2089C2787.68 1977 2608.68 2041 2562.68 2169C2543.68 2225 2543.68 2246 2567.68 2298C2592.68 2354 2659.68 2386 2783.68 2402L2872.68 2413L2973.68 2515C3111.68 2656 3163.68 2682 3303.68 2676C3372.68 2673 3394.68 2667 3444.68 2641ZM2422.68 1984C2505.68 1944 2595.68 1905 2622.68 1896C2700.68 1872 2802.68 1861 2892.68 1867C2972.68 1873 2976.68 1872 3001.68 1847C3030.68 1817 3035.68 1776 3012.68 1743C3004.68 1731 2969.68 1706 2934.68 1686C2809.68 1616 2752.68 1566 2664.68 1447C2569.68 1319 2499.68 1256 2387.68 1200C2229.68 1120 2073.68 1094 1946.68 1124C1907.68 1134 1873.68 1139 1870.68 1137C1868.68 1134 1892.68 1105 1925.68 1072C2002.68 995 2055.68 976 2171.68 982C2326.68 991 2434.68 1054 2663.68 1272C2878.68 1477 3071.68 1630 3113.68 1630C3171.68 1630 3184.68 1566 3135.68 1522C3117.68 1506 3075.68 1469 3042.68 1440C3009.68 1411 2893.68 1302 2785.68 1199C2677.68 1097 2555.68 990 2514.68 963C2318.68 831 2078.68 804 1923.68 895C1858.68 933 1769.68 1032 1679.68 1167C1577.68 1319 1549.68 1351 1473.68 1402C1398.68 1452 1387.68 1465 1387.68 1505C1387.68 1557 1406.68 1573 1482.68 1581C1577.68 1591 1617.68 1621 1688.68 1740C1787.68 1905 1877.68 1987 2012.68 2035C2071.68 2057 2096.68 2060 2177.68 2058C2272.68 2055 2272.68 2055 2422.68 1984ZM4536.68 2041C4670.68 1999 4787.68 1896 4872.68 1744C4940.68 1624 4998.68 1580 5092.68 1580C5148.68 1580 5177.68 1555 5177.68 1507C5177.68 1465 5166.68 1452 5091.68 1402C5015.68 1351 4976.68 1307 4879.68 1160C4793.68 1028 4684.68 914 4614.68 882C4455.68 808 4240.68 838 4054.68 959C4014.68 985 3887.68 1096 3772.68 1206C3656.68 1315 3528.68 1434 3487.68 1469C3446.68 1504 3409.68 1538 3405.68 1544C3382.68 1577 3409.68 1630 3449.68 1630C3491.68 1630 3681.68 1480 3892.68 1280C4065.68 1117 4139.68 1060 4240.68 1017C4305.68 988 4322.68 985 4412.68 985C4491.68 985 4520.68 989 4552.68 1005C4590.68 1023 4697.68 1124 4697.68 1141C4697.68 1145 4678.68 1142 4655.68 1133C4625.68 1121 4580.68 1116 4507.68 1116C4388.68 1116 4302.68 1137 4182.68 1197C4055.68 1260 3994.68 1315 3895.68 1453C3820.68 1558 3766.68 1607 3644.68 1678C3601.68 1703 3559.68 1733 3551.68 1744C3530.68 1775 3534.68 1818 3561.68 1845C3583.68 1867 3591.68 1868 3718.68 1868C3837.68 1868 3862.68 1871 3937.68 1895C3984.68 1910 4072.68 1947 4132.68 1978C4193.68 2008 4258.68 2039 4277.68 2046C4331.68 2066 4465.68 2063 4536.68 2041Z" sodipodi:nodetypes="cccccccccccccccccccccccccccccccccccccccccccccccccccccccccccccccccccccccccccccccccccccccccccccccccccccccccccccccccccccccccccccccccccccccccccccccccccccccccccccccccccccccccccccccccccccccccccccccc"/>
   <path id="p6aSu1qwK" transform="translate(2167, 2510.6411005498)" fill="#fffffe" stroke-opacity="0" stroke="#000000" stroke-width="0" stroke-linecap="square" stroke-linejoin="bevel" d="M250 494.359C224 469.359 179 406.359 149 356.359C119 305.359 73 244.359 47 219.359L0 176.359L29 153.359C88 105.359 205 37.3589 258 18.3589C443 -46.6411 718 67.3589 842 259.359C861 289.359 899 337.359 925 366.359L974 417.359L917 434.359C886 443.359 820 468.359 771 489.359C722 510.359 683 524.359 685 520.359C687 517.359 702 487.359 718 454.359C757 377.359 760 278.359 726 213.359C682 130.359 581 69.3589 489 69.3589C419 70.3589 312 145.359 277 217.359C251 271.359 253 396.359 282 473.359C293 506.359 301 534.359 299 536.359C297 538.359 275 519.359 250 494.359Z" sodipodi:nodetypes="ccccccccccccccccccc"/>
   <path id="pOZn7ivWC" transform="translate(4389, 2510.1892678984)" fill="#fffffe" stroke-opacity="0" stroke="#000000" stroke-width="0" stroke-linecap="square" stroke-linejoin="bevel" d="M676 524.811C708 444.811 722 370.811 717 307.811C711 230.811 697 198.811 644 147.811C550 56.8107 443 46.8107 329 118.811C293 141.811 276 162.811 251 213.811C203 309.811 211 371.811 289 521.811C291 525.811 252 510.811 202 489.811C152 467.811 87 442.811 56 434.811L0 417.811L49 366.811C75 337.811 113 289.811 132 259.811C253 70.8107 517 -42.1893 707 14.8107C747 26.8107 971 160.811 971 172.811C971 173.811 945 202.811 914 234.811C882 267.811 839 326.811 818 364.811C780 433.811 751 470.811 696 519.811C671 541.811 669 541.811 676 524.811Z" sodipodi:nodetypes="ccccccccccccccccc"/>
   <path id="prSAhpGPH" transform="translate(333, 2760.16767379576)" fill="#fffffe" stroke-opacity="0" stroke="#000000" stroke-width="0" stroke-linecap="square" stroke-linejoin="bevel" d="M0 39.8323C0 3.83233 2 -10.1677 4 7.83233C6 24.8323 6 54.8323 4 72.8323C2 89.8323 0 75.8323 0 39.8323Z" sodipodi:nodetypes="cccc"/>
   <path id="pJo20geh7" transform="translate(7193, 2766.10297937071)" fill="#fffffe" stroke-opacity="0" stroke="#000000" stroke-width="0" stroke-linecap="square" stroke-linejoin="bevel" d="M0 33.897C0 3.89702 2 -9.10298 4 6.89702C6 21.897 6 45.897 4 61.897C2 76.897 0 63.897 0 33.897Z" sodipodi:nodetypes="cccc"/>
   <path id="pnGtnXr32" transform="translate(892.728358639238, 1412.7916617928)" fill="#fffffe" stroke-opacity="0" stroke="#000000" stroke-width="0" stroke-linecap="square" stroke-linejoin="bevel" d="M748.272 981.208C723.272 949.208 723.272 946.208 746.272 878.208C773.272 800.208 749.272 744.208 681.272 731.208C636.272 723.208 599.272 747.208 562.272 810.208C489.272 936.208 265.272 996.208 123.272 928.208C68.2716 901.208 40.2716 858.208 57.2716 827.208C75.2716 794.208 179.272 747.208 234.272 747.208C337.272 747.208 387.272 715.208 387.272 650.208C387.272 591.208 361.272 577.208 252.272 577.208C141.272 577.208 102.272 562.208 45.2716 499.208C0.271641 449.208 -12.7284 399.208 13.2716 379.208C48.2716 353.208 159.272 368.208 271.272 415.208C389.272 465.208 427.272 468.208 456.272 431.208C496.272 380.208 476.272 331.208 401.272 296.208C354.272 274.208 302.272 221.208 286.272 180.208C260.272 111.208 292.272 54.2083 379.272 17.2083C426.272 -2.79166 437.272 -3.79166 481.272 6.20834C589.272 31.2083 637.272 76.2083 726.272 234.208C755.272 285.208 787.272 331.208 797.272 337.208C832.272 356.208 874.272 349.208 896.272 321.208C922.272 288.208 922.272 271.208 896.272 212.208C878.272 170.208 876.272 159.208 886.272 125.208C902.272 73.2083 935.272 57.2083 982.272 80.2083C1001.27 89.2083 1024.27 111.208 1033.27 129.208C1053.27 168.208 1077.27 252.208 1077.27 286.208C1077.27 300.208 1091.27 339.208 1107.27 373.208C1136.27 432.208 1137.27 437.208 1124.27 470.208C1098.27 531.208 1015.27 552.208 876.272 532.208C776.272 518.208 717.272 554.208 717.272 627.208C717.272 695.208 752.272 723.208 860.272 741.208C947.272 756.208 972.272 782.208 972.272 856.208C972.272 941.208 902.272 1007.21 813.272 1007.21C777.272 1007.21 765.272 1002.21 748.272 981.208Z" sodipodi:nodetypes="ccccccccccccccccccccccccccccccccc"/>
   <path id="pLxvGyk8f" transform="translate(5504.94188559839, 1416.90625)" fill="#fffffe" stroke-opacity="0" stroke="#000000" stroke-width="0" stroke-linecap="square" stroke-linejoin="bevel" d="M239.058 984.094C164.058 938.094 135.058 845.094 177.058 784.094C198.058 753.094 207.058 748.094 271.058 737.094C380.058 719.094 415.058 691.094 415.058 623.094C415.058 550.094 356.058 514.094 256.058 528.094C116.058 548.094 35.0581 528.094 9.05811 468.094C-4.94189 433.094 -4.94189 429.094 25.0581 369.094C41.0581 335.094 55.0581 293.094 55.0581 277.094C55.0581 234.094 84.0581 143.094 107.058 110.094C149.058 51.0938 217.058 51.0938 241.058 110.094C255.058 143.094 255.058 151.094 234.058 214.094L211.058 283.094L232.058 311.094C254.058 341.094 301.058 351.094 334.058 334.094C345.058 328.094 377.058 281.094 406.058 230.094C477.058 103.094 515.058 59.0938 582.058 27.0938C651.058 -6.90625 713.058 -8.90625 772.058 21.0938C852.058 63.0938 873.058 118.094 836.058 191.094C813.058 235.094 786.058 260.094 723.058 297.094C652.058 337.094 637.058 378.094 676.058 427.094C705.058 464.094 747.058 461.094 863.058 411.094C973.058 364.094 1083.06 349.094 1119.06 375.094C1145.06 396.094 1132.06 445.094 1086.06 496.094C1032.06 556.094 987.058 573.094 878.058 573.094C771.058 573.094 745.058 587.094 745.058 646.094C745.058 711.094 795.058 743.094 898.058 743.094C953.058 743.094 1057.06 790.094 1075.06 823.094C1092.06 854.094 1064.06 897.094 1008.06 924.094C968.058 944.094 945.058 948.094 864.058 948.094C774.058 948.094 765.058 946.094 691.058 910.094C632.058 880.094 607.058 861.094 587.058 831.094C572.058 808.094 545.058 774.094 527.058 755.094C498.058 724.094 490.058 721.094 457.058 726.094C384.058 738.094 356.058 808.094 390.058 890.094C410.058 938.094 409.058 950.094 380.058 978.094C350.058 1009.09 285.058 1012.09 239.058 984.094Z" sodipodi:nodetypes="cccccccccccccccccccccccccccccccccccc"/>
   <path id="pR5VU5C9j" transform="translate(6753.00000000001, 2245.57319877631)" fill="#fffffe" stroke-opacity="0" stroke="#000000" stroke-width="0" stroke-linecap="square" stroke-linejoin="bevel" d="M0 29.4268C0 2.4268 2 -8.5732 4 7.4268C6 22.4268 6 44.4268 4 57.4268C2 69.4268 0 57.4268 0 29.4268Z" sodipodi:nodetypes="cccc"/>
   <path id="pYT09ZEgJ" transform="translate(6650.70192525046, 1990)" fill="#fffffe" stroke-opacity="0" stroke="#000000" stroke-width="0" stroke-linecap="square" stroke-linejoin="bevel" d="M44.2981 50C71.2981 23 95.2981 0 98.2981 0C101.298 0 81.2981 23 54.2981 50C27.2981 78 3.29807 100 0.298075 100C-2.70193 100 17.2981 78 44.2981 50Z" sodipodi:nodetypes="ccccc"/>
   <path id="pezcIPEpF" transform="translate(952.293767048827, 1611.5)" fill="#fffffe" stroke-opacity="0" stroke="#000000" stroke-width="0" stroke-linecap="square" stroke-linejoin="bevel" d="M5.70623 1.5C17.7062 -0.5 37.7062 -0.5 50.7062 1.5C62.7062 3.5 52.7062 5.5 27.7062 5.5C2.70623 5.5 -7.29377 3.5 5.70623 1.5Z" sodipodi:nodetypes="cccc"/>
   <path id="p19NRJMjVm" transform="translate(1012, 1528.66963786003)" fill="#fffffe" stroke-opacity="0" stroke="#000000" stroke-width="0" stroke-linecap="square" stroke-linejoin="bevel" d="M0 21.3304C0 2.33036 2 -5.66964 5 4.33036C7 13.3304 7 29.3304 5 39.3304C2 48.3304 0 40.3304 0 21.3304Z" sodipodi:nodetypes="cccc"/>
   <path id="p1B1SYvbqV" transform="translate(1660.56950036976, 1360)" fill="#fffffe" stroke-opacity="0" stroke="#000000" stroke-width="0" stroke-linecap="square" stroke-linejoin="bevel" d="M29.4305 35C48.4305 16 65.4305 0 68.4305 0C71.4305 0 58.4305 16 39.4305 35C20.4305 54 3.4305 70 0.4305 70C-2.5695 70 10.4305 54 29.4305 35Z" sodipodi:nodetypes="ccccc"/>
   <path id="pS8veo7Eq" transform="translate(5805, 1365)" fill="#fffffe" stroke-opacity="0" stroke="#000000" stroke-width="0" stroke-linecap="square" stroke-linejoin="bevel" d="M29 33L0 0L33 29C50 46 65 60 65 62C65 70 57 63 29 33Z" sodipodi:nodetypes="ccccc"/>
   <path id="p11OR1Msn9" transform="translate(3428.66963786003, 1071.5)" fill="#fffffe" stroke-opacity="0" stroke="#000000" stroke-width="0" stroke-linecap="square" stroke-linejoin="bevel" d="M4.33036 1.5C13.3304 -0.5 29.3304 -0.5 39.3304 1.5C48.3304 4.5 40.3304 6.5 21.3304 6.5C2.33036 6.5 -5.66964 4.5 4.33036 1.5Z" sodipodi:nodetypes="cccc"/>
  </g>
 </g>
</svg>
