<?xml version="1.0" standalone="no"?>
<!DOCTYPE svg PUBLIC "-//W3C//DTD SVG 20010904//EN"
 "http://www.w3.org/TR/2001/REC-SVG-20010904/DTD/svg10.dtd">
<svg version="1.0" xmlns="http://www.w3.org/2000/svg"
 width="700.000000pt" height="700.000000pt" viewBox="0 0 700.000000 700.000000"
 preserveAspectRatio="xMidYMid meet">
<metadata>
Created by potrace 1.14, written by Peter Selinger 2001-2017
</metadata>
<g transform="translate(0.000000,700.000000) scale(0.100000,-0.100000)"
fill="#000000" stroke="none">
<path d="M3110 5990 c-124 -16 -148 -21 -210 -39 -81 -23 -265 -98 -372 -151
-107 -54 -227 -133 -417 -277 -46 -34 -88 -63 -92 -63 -17 0 -39 33 -65 102
-37 98 -107 169 -182 187 -70 17 -140 1 -187 -43 l-33 -32 -54 45 c-156 130
-340 134 -470 9 -60 -58 -82 -110 -81 -189 l1 -36 -71 -12 c-88 -15 -136 -41
-170 -94 -56 -85 -33 -191 63 -300 l42 -47 -25 -20 c-58 -46 -82 -150 -53
-232 l14 -38 -39 0 c-47 0 -43 1 -104 -17 -174 -51 -286 -182 -292 -340 -4
-136 46 -264 168 -423 174 -228 217 -323 205 -459 -3 -42 -8 -85 -10 -96 -45
-233 -11 -382 118 -510 78 -77 144 -102 274 -104 l52 -1 0 -33 c0 -59 30 -151
66 -204 38 -55 82 -89 154 -117 42 -17 56 -20 117 -29 12 -2 25 -5 27 -8 2 -2
-1 -31 -8 -65 -7 -33 -12 -67 -10 -75 11 -71 16 -94 30 -131 22 -55 89 -155
128 -191 106 -96 214 -142 401 -172 55 -9 103 -22 107 -28 4 -7 8 -33 8 -59 0
-27 0 -50 1 -53 31 -147 91 -242 197 -313 105 -70 158 -86 288 -85 56 0 84 6
130 27 56 26 60 26 72 9 130 -187 206 -257 371 -339 114 -56 198 -74 325 -69
146 5 171 10 271 53 137 60 286 179 363 291 23 34 42 66 42 71 0 16 17 12 71
-15 95 -48 246 -39 363 23 93 49 165 122 211 215 32 65 37 86 41 163 2 48 6
89 7 91 2 1 48 9 103 17 104 16 227 52 294 86 63 32 193 167 223 230 40 86 53
165 39 245 -6 38 -9 72 -6 77 3 4 21 8 39 8 49 0 121 27 185 69 69 46 116 130
132 239 l10 72 52 1 c70 1 98 6 164 31 105 39 200 161 232 297 12 50 9 181 -5
256 -3 17 -8 73 -11 125 -10 151 19 214 227 495 70 95 125 203 134 265 4 25 7
79 7 121 0 62 -6 88 -27 132 -52 110 -185 201 -325 221 l-76 11 13 45 c8 25
12 65 9 88 -6 48 -46 126 -73 141 -15 8 -12 14 23 53 117 127 122 290 12 360
-44 27 -76 36 -179 47 -3 1 -9 27 -12 60 -6 72 -27 118 -77 169 -64 65 -120
87 -225 87 -78 0 -97 -4 -146 -28 -31 -15 -77 -45 -102 -67 -29 -26 -51 -38
-61 -34 -9 3 -16 9 -16 13 0 4 -19 18 -42 31 -33 19 -58 25 -103 24 -105 0
-173 -56 -226 -184 -30 -73 -54 -110 -70 -110 -5 0 -61 40 -126 89 -65 48
-156 114 -203 146 -165 111 -522 265 -652 280 -25 3 -57 8 -69 11 -37 9 -787
12 -849 4z"/>
</g>
</svg>
