<svg class="img-fluid"
     id="outputsvg"
     xmlns="http://www.w3.org/2000/svg"
     style="transform: matrix(4.13578, 0, 0, 4.13578, 0, 0); transform-origin: 50% 50%; cursor: move; max-height: none;"
     width="750"
     height="750"
     viewBox="0 0 750 750">
    <g id="l2YFzh5enTWMhOwLryj2Fh"
       fill="rgb(9,7,13)"
       style="transform: none;">
        <g style="transform: none;">
            <path id="pNLigjL7X"
                  d="M3609 6555 c-125 -25 -280 -105 -400 -207 -53 -45 -122 -129 -163 -200 l-27 -46 -61 31 c-57 30 -68 32 -162 32 -127 0 -203 -25 -298 -95 -130 -96 -198 -219 -206 -376 l-4 -91 -101 -12 c-206 -25 -357 -92 -464 -205 -114 -120 -169 -269 -146 -394 6 -31 14 -65 18 -74 6 -15 1 -18 -26 -18 -81 0 -198 -48 -257 -103 -66 -62 -111 -172 -112 -268 l0 -37 -87 -4 c-125 -7 -192 -35 -268 -112 -64 -65 -106 -139 -130 -232 -20 -78 -19 -146 5 -284 24 -140 25 -209 4 -281 -32 -107 -56 -144 -256 -404 -90 -117 -146 -288 -135 -413 9 -93 49 -173 116 -233 87 -78 209 -129 309 -129 23 0 42 -1 42 -2 0 -2 -7 -21 -15 -43 -22 -62 -19 -124 10 -182 14 -28 37 -59 51 -68 l26 -16 -51 -54 c-109 -115 -128 -251 -48 -342 40 -46 95 -70 177 -79 l65 -6 1 -62 c1 -117 86 -220 220 -267 118 -42 267 -3 374 97 l51 47 32 -31 c91 -88 228 -82 321 14 44 45 68 88 90 164 10 32 26 62 40 72 22 16 24 15 77 -29 84 -69 317 -234 405 -285 110 -65 397 -185 508 -213 147 -37 330 -48 722 -42 469 6 516 15 835 152 83 36 196 92 249 125 98 60 310 213 384 276 37 32 39 33 62 16 14 -10 30 -39 40 -72 45 -151 139 -239 257 -240 58 0 102 17 150 59 l36 32 46 -44 c117 -112 285 -145 418 -83 112 53 179 149 181 257 l1 57 64 6 c142 15 223 87 224 201 1 79 -28 148 -88 214 l-54 58 34 31 c58 56 79 155 50 237 -8 22 -15 41 -15 43 0 1 16 2 35 2 158 0 337 108 398 240 28 58 31 75 30 160 0 170 -41 261 -222 494 -180 232 -205 322 -160 579 33 188 15 305 -66 432 -74 116 -178 175 -326 183 l-86 4 -7 65 c-4 35 -16 90 -28 121 -46 122 -195 221 -337 222 -28 0 -32 3 -26 18 4 9 12 47 18 84 12 77 -5 164 -50 258 -36 74 -160 198 -238 237 -91 46 -211 81 -326 94 l-104 12 3 69 c8 158 -78 314 -226 411 -97 64 -157 82 -278 82 -94 0 -105 -2 -162 -31 l-61 -32 -40 67 c-97 164 -317 325 -513 377 -83 21 -264 26 -349 9z m313 -220 c204 -61 400 -259 438 -442 17 -80 43 -103 117 -103 71 0 96 15 124 76 12 24 35 56 52 70 28 24 37 26 92 22 68 -6 121 -29 182 -82 46 -40 103 -143 103 -188 0 -41 -25 -95 -65 -139 -30 -34 -35 -46 -35 -88 0 -66 13 -97 49 -116 44 -22 104 -19 161 10 37 19 65 25 113 25 76 0 213 -33 281 -67 105 -53 206 -181 206 -260 0 -39 -37 -118 -78 -165 -52 -61 -62 -81 -62 -131 0 -51 12 -84 39 -104 27 -21 133 -16 188 9 31 13 70 22 109 22 78 1 136 -34 165 -99 17 -39 18 -50 8 -92 -13 -53 -39 -108 -93 -197 -30 -50 -36 -69 -36 -117 0 -68 22 -102 78 -120 49 -15 98 -53 117 -89 13 -26 13 -34 2 -62 -8 -18 -20 -38 -28 -44 -29 -24 -135 -73 -174 -80 -23 -4 -51 -19 -67 -35 -24 -24 -28 -35 -28 -87 0 -33 7 -79 16 -103 33 -92 12 -194 -45 -224 -28 -14 -34 -14 -60 -1 -66 35 -131 131 -200 297 -42 102 -57 114 -136 114 -58 0 -67 -3 -97 -32 -42 -41 -121 -76 -150 -67 -41 13 -130 108 -170 182 -22 40 -48 77 -58 82 -39 21 -122 11 -185 -21 -52 -26 -67 -30 -110 -24 -163 19 -265 114 -310 290 -22 88 -41 109 -100 113 -72 5 -94 -4 -111 -43 -8 -19 -25 -41 -37 -50 -21 -14 -29 -14 -66 -1 -59 22 -126 70 -151 111 -15 24 -24 59 -28 102 l-5 66 46 -6 c152 -21 301 -29 452 -24 280 8 417 -14 590 -97 115 -55 281 -165 368 -244 l67 -62 63 0 c68 1 91 12 107 54 20 53 11 91 -45 197 -31 57 -94 181 -141 274 -162 321 -227 411 -387 536 -219 171 -436 262 -844 355 -103 23 -144 27 -328 30 -258 5 -347 -4 -553 -56 -206 -52 -287 -79 -423 -139 -192 -86 -381 -221 -479 -343 -61 -75 -138 -206 -211 -357 -33 -68 -94 -186 -135 -262 -58 -108 -74 -146 -74 -179 0 -81 30 -109 117 -110 l62 0 73 66 c149 133 368 260 528 303 108 30 231 39 425 34 151 -5 300 3 452 24 l46 6 -5 -64 c-3 -36 -13 -79 -22 -97 -20 -39 -96 -96 -155 -117 -40 -13 -46 -13 -72 2 -16 10 -29 25 -29 35 0 37 -36 58 -98 58 -75 0 -93 -18 -121 -123 -22 -79 -53 -140 -100 -191 -35 -39 -132 -83 -198 -92 -48 -6 -61 -3 -117 25 -66 32 -147 42 -186 21 -10 -5 -35 -40 -56 -77 -42 -76 -113 -157 -157 -180 -27 -13 -34 -13 -75 3 -25 9 -63 33 -85 53 -37 33 -44 36 -104 36 -58 0 -67 -3 -88 -26 -12 -15 -37 -62 -55 -105 -65 -157 -125 -246 -191 -280 -26 -13 -32 -13 -59 1 -60 31 -80 130 -46 224 9 24 16 70 16 102 0 77 -21 100 -123 133 -101 34 -155 68 -173 112 -13 30 -13 38 0 63 21 39 69 78 113 90 63 18 83 45 83 116 0 57 -4 68 -55 152 -31 51 -62 117 -70 151 -14 55 -14 64 0 99 45 107 150 139 279 83 54 -23 161 -27 187 -7 27 20 39 54 39 105 0 44 -5 57 -46 108 -59 76 -94 145 -94 186 1 80 99 207 200 258 74 37 209 70 287 70 48 0 76 -6 113 -25 85 -43 174 -28 200 35 21 51 8 126 -28 163 -36 37 -62 94 -62 135 0 46 57 147 107 191 53 47 136 81 198 81 54 0 94 -30 124 -94 28 -61 53 -76 124 -76 75 0 100 23 117 106 41 202 281 418 505 454 63 11 188 3 247 -15z m-295 -1162 c-4 -38 -7 -85 -7 -105 l0 -38 -105 0 -105 0 0 89 0 88 83 15 c45 9 95 16 111 17 l29 1 -6 -67z m400 50 l93 -16 0 -89 0 -88 -105 0 -105 0 0 28 c0 16 -3 63 -6 105 -8 90 -18 85 123 60z m-817 -147 l0 -74 -67 -15 c-38 -8 -68 -15 -69 -14 -1 1 -4 32 -7 68 l-6 65 62 21 c91 31 87 33 87 -51z m1191 52 l66 -21 -5 -66 c-2 -36 -5 -67 -6 -68 0 -1 -31 6 -68 14 l-68 15 0 74 c0 41 3 74 7 74 4 0 37 -10 74 -22z m-1581 -186 c0 -39 0 -39 -72 -67 -80 -31 -83 -32 -83 -11 0 16 123 116 143 116 7 0 12 -14 12 -38z m1987 -19 c38 -29 62 -53 61 -63 -4 -18 -3 -18 -90 17 -68 26 -68 26 -68 66 0 48 6 46 97 -20z m-1193 -175 c-4 -40 -11 -76 -17 -80 -6 -3 -35 -9 -66 -12 -31 -4 -74 -9 -95 -12 l-39 -6 6 47 c4 26 7 67 7 91 l0 44 106 0 105 0 -7 -72z m506 20 c0 -29 3 -70 7 -92 l6 -38 -39 6 c-21 3 -64 8 -95 12 -31 3 -61 9 -66 12 -6 4 -14 40 -18 80 l-7 72 106 0 106 0 0 -52z m-923 -54 c-2 -36 -7 -68 -10 -71 -4 -3 -26 -2 -51 1 -44 7 -45 8 -52 52 -3 25 -4 47 -1 50 5 5 92 31 111 33 5 1 6 -29 3 -65z m1193 52 l55 -13 -3 -48 c-1 -27 -4 -50 -6 -53 -2 -2 -26 -4 -53 -5 l-48 -2 -3 68 c-2 37 -2 67 0 67 2 -1 28 -7 58 -14z m-1560 -111 c0 -9 -9 -15 -22 -15 -22 1 -23 1 -4 15 25 19 26 19 26 0z m1910 -10 c0 -3 -9 -5 -20 -5 -11 0 -20 7 -20 15 0 13 4 14 20 5 11 -6 20 -13 20 -15z m-3513 -365 l21 -45 -37 -32 c-21 -17 -53 -60 -71 -95 -31 -58 -34 -70 -34 -153 -1 -173 60 -276 204 -345 l71 -35 -8 -65 c-4 -36 -8 -110 -8 -166 0 -96 1 -102 29 -138 20 -26 53 -50 105 -75 75 -35 78 -36 201 -36 120 0 127 1 178 29 79 44 171 147 218 245 34 70 42 81 59 75 11 -4 71 -9 132 -11 104 -4 117 -3 168 21 64 29 156 112 191 173 24 39 26 41 57 32 47 -13 175 -11 260 5 157 30 277 123 344 265 l37 79 101 4 c85 4 108 8 155 32 70 36 125 80 147 116 l16 28 27 -36 c33 -46 90 -86 167 -118 45 -18 77 -24 143 -24 l85 0 38 -80 c68 -146 184 -235 343 -266 85 -16 213 -19 260 -5 29 8 32 6 57 -34 40 -63 130 -143 193 -172 52 -23 63 -25 167 -20 62 2 121 8 132 11 17 6 25 -4 58 -74 44 -95 139 -201 219 -246 51 -28 58 -29 178 -29 123 0 126 1 201 36 52 25 85 49 105 75 27 35 29 43 29 133 0 53 -4 128 -8 166 l-9 70 66 32 c125 62 184 138 207 267 6 37 8 91 4 121 -8 71 -57 167 -105 207 l-37 32 20 48 c19 47 21 48 62 48 53 0 125 -21 163 -48 36 -27 86 -120 102 -193 11 -50 10 -71 -9 -171 -25 -136 -28 -306 -6 -388 24 -92 79 -189 190 -335 59 -77 121 -165 140 -195 97 -160 89 -293 -23 -375 -55 -41 -108 -59 -213 -76 -65 -10 -84 -9 -125 4 -130 42 -277 48 -400 17 l-79 -20 -18 24 c-38 53 -73 65 -212 72 -81 4 -144 3 -167 -4 -35 -10 -37 -9 -28 8 6 10 10 46 10 79 0 78 -20 101 -85 101 -94 0 -152 44 -219 163 -62 110 -124 180 -213 237 -99 65 -169 83 -314 78 l-114 -3 -150 -72 c-210 -101 -256 -113 -422 -113 -129 0 -135 -1 -158 -25 -21 -20 -25 -34 -25 -82 0 -35 6 -67 14 -79 8 -11 50 -41 93 -66 122 -71 176 -120 251 -225 99 -138 160 -193 287 -256 111 -55 197 -78 323 -84 l113 -6 -33 -22 c-82 -55 -167 -57 -287 -7 -98 42 -173 98 -346 262 -153 146 -245 223 -358 304 -56 40 -71 46 -115 46 -66 0 -82 -16 -82 -83 0 -29 4 -57 8 -63 4 -6 41 -40 82 -75 41 -35 169 -154 285 -263 230 -219 310 -277 442 -326 74 -27 106 -34 199 -38 185 -8 268 21 380 132 39 40 105 123 148 189 42 64 79 117 81 117 2 0 -5 -21 -17 -47 -17 -38 -22 -69 -22 -145 l-1 -98 -28 0 c-51 0 -156 -69 -272 -179 -124 -117 -206 -171 -308 -203 -143 -43 -269 -10 -418 110 -74 60 -114 105 -251 282 -71 93 -141 162 -206 205 -35 23 -49 27 -89 22 -56 -6 -73 -25 -73 -83 0 -36 8 -52 53 -107 28 -36 88 -112 131 -168 153 -200 182 -232 266 -305 142 -124 253 -171 426 -181 102 -6 198 6 276 33 21 7 38 11 38 8 0 -9 -187 -127 -260 -164 -133 -66 -343 -148 -420 -164 -242 -49 -830 -49 -1070 0 -76 16 -303 105 -434 171 -66 33 -258 154 -253 160 2 1 32 -7 67 -19 89 -30 315 -32 404 -4 176 53 318 169 492 401 50 66 124 161 163 210 72 89 73 91 68 139 -5 59 -24 76 -81 76 -76 0 -191 -100 -336 -295 -169 -224 -319 -333 -475 -343 -145 -9 -276 52 -435 205 -118 113 -236 193 -285 193 l-30 0 -1 93 c-1 68 -6 106 -22 146 -26 67 -22 63 68 -74 172 -259 278 -322 520 -313 98 4 128 10 204 38 129 48 214 110 434 319 108 103 224 212 257 241 33 29 75 66 93 82 29 25 32 34 32 83 0 70 -15 85 -84 85 -49 0 -58 -4 -142 -66 -117 -88 -182 -144 -338 -292 -162 -154 -241 -213 -334 -252 -122 -52 -218 -50 -292 5 l-30 22 112 6 c128 7 212 29 328 87 112 56 182 119 277 247 88 119 145 169 270 239 80 45 93 64 93 137 0 48 -4 62 -25 83 -23 23 -29 24 -147 23 -173 -1 -212 9 -433 115 l-150 71 -119 3 c-102 3 -128 1 -189 -19 -138 -44 -234 -130 -336 -299 -71 -119 -111 -149 -206 -159 -49 -5 -71 -12 -81 -26 -16 -22 -19 -127 -4 -155 9 -17 7 -18 -28 -8 -51 14 -286 2 -322 -17 -16 -8 -39 -28 -52 -45 l-24 -30 -78 20 c-123 31 -282 24 -395 -17 -38 -14 -55 -14 -130 -3 -122 18 -186 44 -241 99 -56 56 -73 109 -60 190 14 85 59 165 189 336 128 167 191 280 210 373 17 83 13 237 -9 358 -26 135 -21 190 26 284 49 98 121 142 224 137 43 -2 46 -4 67 -47z m1564 -1254 c73 -38 167 -79 252 -109 17 -6 15 -11 -16 -49 -18 -24 -44 -60 -56 -80 -32 -53 -134 -144 -199 -177 -72 -36 -184 -71 -228 -71 -52 0 -135 33 -220 87 -42 26 -78 51 -81 56 -2 4 11 25 29 45 19 21 49 65 68 97 49 89 97 148 150 189 104 79 168 82 301 12z m2196 21 c66 -34 143 -115 189 -199 21 -39 56 -90 76 -113 21 -24 38 -45 38 -48 0 -3 -37 -29 -82 -58 -92 -59 -164 -88 -219 -89 -44 0 -151 32 -227 68 -63 29 -170 125 -203 180 -12 21 -38 56 -56 80 -31 38 -33 43 -16 48 67 24 192 79 268 119 80 41 95 46 137 41 25 -3 68 -16 95 -29z m-3237 -672 c39 -20 80 -76 80 -108 0 -43 -38 -74 -97 -81 l-51 -6 5 37 c2 21 -3 60 -11 88 -14 45 -14 51 1 67 20 22 35 23 73 3z m4100 -3 c18 -15 20 -21 11 -45 -6 -16 -11 -55 -11 -88 l0 -60 -52 7 c-29 4 -59 11 -66 17 -20 16 -40 60 -34 77 15 45 85 110 118 110 7 0 22 -8 34 -18z m-4563 -67 c79 -36 115 -66 143 -118 28 -53 64 -77 114 -77 l36 0 0 -68 c0 -117 36 -139 212 -128 90 5 115 4 144 -10 53 -25 58 -45 29 -100 -14 -26 -25 -59 -25 -73 0 -14 -6 -48 -14 -76 -27 -103 -74 -158 -103 -119 -17 23 -16 42 2 74 22 39 19 122 -6 154 -18 23 -28 26 -80 26 -33 0 -69 -5 -79 -10 -10 -6 -42 -52 -71 -103 -28 -50 -67 -111 -85 -134 -35 -43 -121 -93 -161 -93 -58 0 -146 71 -136 109 9 35 71 98 117 119 24 12 52 32 60 44 24 34 21 119 -5 152 -18 23 -27 26 -84 26 -50 0 -80 -7 -145 -35 -102 -44 -162 -59 -195 -51 -33 9 -32 19 12 67 58 64 97 79 208 79 122 0 135 10 135 103 0 40 -6 70 -15 84 -18 26 -72 43 -138 43 -53 0 -167 50 -167 74 0 8 12 22 27 32 77 50 174 53 270 9z m5202 2 c25 -13 47 -31 49 -40 5 -25 -105 -77 -165 -77 -66 0 -120 -17 -138 -43 -9 -14 -15 -44 -15 -84 0 -92 14 -103 133 -103 110 0 154 -17 210 -78 43 -48 45 -58 16 -67 -32 -10 -85 3 -186 46 -76 32 -105 39 -157 39 -58 0 -67 -3 -85 -26 -23 -29 -29 -110 -11 -144 6 -11 32 -32 58 -46 63 -36 90 -62 113 -106 18 -36 18 -36 -2 -62 -25 -31 -89 -66 -122 -66 -40 0 -126 50 -161 93 -18 23 -57 84 -85 134 -29 51 -61 97 -71 103 -10 5 -46 10 -79 10 -52 0 -62 -3 -80 -26 -26 -33 -28 -97 -5 -154 18 -45 8 -90 -20 -90 -36 0 -96 128 -96 205 0 18 -11 53 -25 79 -20 38 -23 51 -14 67 20 39 69 50 187 43 176 -11 212 11 212 128 l0 68 38 0 c48 0 74 19 116 85 37 57 92 96 181 128 64 22 142 17 204 -16z"></path>
            <path id="p9609sdXc"
                  d="M3645 3921 c-66 -17 -123 -58 -219 -156 l-101 -102 -89 -11 c-124 -16 -191 -48 -216 -104 -11 -24 -20 -65 -20 -94 0 -137 88 -234 214 -234 72 0 86 14 86 88 0 47 -4 60 -26 83 l-26 27 58 7 c142 16 195 44 291 151 79 88 105 104 168 104 62 0 90 -16 159 -95 99 -113 162 -146 300 -161 l58 -6 -26 -27 c-22 -23 -26 -36 -26 -89 0 -72 10 -82 90 -82 130 0 224 118 207 261 -3 27 -14 63 -24 80 -25 41 -102 76 -198 90 -43 6 -91 17 -106 25 -15 7 -62 52 -105 98 -53 59 -96 95 -138 117 -57 31 -69 33 -171 36 -60 1 -123 -1 -140 -6z"></path>
            <path id="pcuNUSfn5"
                  d="M2583 2995 c-48 -20 -73 -78 -73 -166 0 -126 42 -164 174 -157 67 3 78 7 105 32 41 39 55 86 48 162 -6 75 -26 110 -72 130 -43 18 -140 17 -182 -1z"></path>
            <path id="p1BWoU178p"
                  d="M4760 2992 c-48 -23 -70 -71 -70 -150 0 -68 13 -103 55 -142 22 -21 38 -25 101 -28 131 -7 174 32 174 154 -1 91 -26 149 -74 169 -49 21 -143 19 -186 -3z"></path>
        </g>
    </g>
    <g id="l6nqCJvC3T8hcmcpv60Iyzm"
       fill="rgb(255,0,11)"
       style="transform: none;">
        <g style="transform: none;">
            <path id="p14rnHqM0t"
                  d="M2546 3095 c-61 -23 -124 -76 -138 -115 -14 -39 -17 -195 -5 -251 10 -51 77 -123 143 -155 48 -24 63 -26 132 -22 116 7 198 55 245 143 18 33 22 57 22 140 0 142 -13 164 -128 224 -78 40 -98 46 -160 48 -45 2 -87 -3 -111 -12z m213 -142 c33 -25 55 -92 46 -139 -3 -20 -21 -51 -38 -71 -58 -63 -165 -57 -207 12 -41 66 -12 181 53 211 41 18 111 12 146 -13z"></path>
            <path id="pOCR6oe7m"
                  d="M4720 3062 c-118 -61 -133 -84 -138 -215 -4 -82 -2 -93 27 -151 47 -96 137 -146 259 -146 80 0 139 24 195 78 56 54 69 86 75 183 6 107 -11 183 -47 216 -54 49 -122 76 -201 80 -74 4 -77 4 -170 -45z m196 -97 c65 -27 95 -143 54 -210 -67 -109 -250 -45 -250 87 0 102 98 164 196 123z"></path>
        </g>
    </g>
    <g id="l6g4IcNd1KxlmkAkqc75UpP"
       fill="rgb(255,255,254)"
       style="transform: none;">
        <g style="transform: none;">
            <path id="pku50NfjF"
                  d="M3688 6563 c12 -2 32 -2 45 0 12 2 2 4 -23 4 -25 0 -35 -2 -22 -4z"></path>
            <path id="pn0JmFkya"
                  d="M3788 6563 c12 -2 32 -2 45 0 12 2 2 4 -23 4 -25 0 -35 -2 -22 -4z"></path>
            <path id="pDztN0ZDG"
                  d="M3645 6381 c-225 -38 -464 -253 -505 -455 -26 -129 -127 -146 -181 -30 -12 24 -35 55 -51 69 -26 22 -39 25 -103 25 -140 0 -246 -64 -305 -184 -51 -104 -40 -208 30 -281 16 -16 32 -42 35 -56 9 -37 -17 -83 -55 -99 -29 -12 -37 -11 -86 13 -47 23 -67 27 -147 27 -178 0 -333 -56 -425 -154 -129 -136 -128 -253 2 -420 48 -61 54 -82 34 -119 -27 -51 -76 -60 -153 -27 -145 62 -280 33 -333 -70 -41 -82 -21 -184 63 -323 62 -102 69 -140 31 -176 -13 -12 -39 -26 -59 -32 -70 -19 -127 -86 -127 -149 0 -83 51 -131 187 -176 128 -42 139 -65 98 -214 -39 -145 12 -260 115 -260 88 0 167 92 250 294 43 103 67 130 114 130 27 0 44 -8 68 -31 66 -64 166 -90 226 -59 43 22 115 104 156 179 56 99 79 106 182 56 60 -30 69 -31 144 -26 84 5 173 38 219 80 44 41 91 125 112 204 24 89 49 123 91 123 32 0 68 -31 68 -58 0 -29 59 -56 108 -49 95 12 201 90 221 162 6 22 11 60 11 86 0 25 5 50 12 57 17 17 43 15 58 -3 12 -14 15 -14 30 0 20 18 44 19 57 3 6 -7 13 -43 15 -80 7 -81 32 -126 94 -169 117 -80 213 -78 248 6 15 34 45 51 82 43 26 -5 52 -47 69 -113 35 -135 111 -232 213 -268 27 -10 84 -21 126 -24 71 -5 80 -4 140 26 104 51 126 44 184 -61 39 -71 114 -154 159 -177 55 -28 158 1 221 62 38 36 89 42 121 13 11 -10 34 -53 52 -95 51 -122 84 -183 129 -234 68 -76 126 -95 191 -61 58 30 82 140 54 245 -31 113 -31 135 2 168 18 17 45 31 69 35 53 9 164 68 187 99 27 35 33 106 13 145 -19 38 -68 75 -118 91 -45 15 -78 53 -78 90 0 15 16 54 36 87 83 136 114 232 100 306 -24 127 -169 184 -322 127 -112 -41 -161 -35 -184 22 -17 39 -8 65 41 124 97 117 117 213 66 318 -32 64 -114 145 -183 180 -79 40 -206 67 -311 67 -80 0 -100 -4 -148 -27 -53 -26 -55 -27 -90 -10 -63 30 -71 89 -20 146 47 52 65 99 65 169 0 107 -74 216 -185 275 -29 15 -64 22 -130 25 -86 4 -92 3 -122 -22 -17 -14 -40 -46 -52 -70 -53 -114 -154 -99 -181 27 -38 183 -232 379 -439 443 -56 17 -238 26 -306 15z m478 -976 c404 -90 625 -183 844 -354 166 -130 215 -199 418 -596 65 -126 129 -251 142 -276 20 -38 22 -50 13 -74 -14 -38 -38 -54 -77 -55 -26 0 -46 12 -100 62 -87 79 -253 189 -368 244 -175 83 -325 108 -600 98 -223 -8 -529 23 -605 61 -20 11 -30 11 -50 0 -75 -38 -382 -69 -605 -61 -189 7 -323 -4 -435 -35 -160 -43 -379 -170 -528 -303 -81 -73 -119 -84 -160 -46 -43 40 -39 59 42 208 41 77 102 195 135 263 73 151 150 282 211 357 98 122 287 257 479 343 136 60 217 87 424 139 203 51 254 57 502 54 175 -2 215 -6 318 -29z"></path>
            <path id="pMtjdA7it"
                  d="M3460 5252 l-85 -17 4 -115 c2 -63 5 -117 7 -119 4 -4 257 -2 261 2 1 1 5 62 9 135 l7 132 -59 -1 c-32 0 -97 -8 -144 -17z"></path>
            <path id="pAVKpwekW"
                  d="M3874 5138 c4 -73 8 -133 9 -134 1 -2 61 -4 132 -5 l130 -2 6 114 c3 63 3 117 0 120 -10 11 -182 39 -235 39 l-49 0 7 -132z"></path>
            <path id="p14gNvJILB"
                  d="M3125 5166 c-55 -18 -99 -37 -98 -43 1 -6 5 -51 9 -102 4 -50 10 -91 13 -91 3 0 48 9 99 21 l92 21 0 109 c0 59 -3 110 -8 113 -4 2 -52 -10 -107 -28z"></path>
            <path id="p1H4J19o3D"
                  d="M4296 5193 c-3 -4 -6 -55 -6 -113 l0 -108 93 -21 c50 -12 95 -21 98 -21 3 0 9 40 12 90 4 49 8 94 9 101 4 15 -194 84 -206 72z"></path>
            <path id="pLiKkZqHc"
                  d="M2780 5014 c-24 -14 -75 -50 -112 -80 l-67 -54 27 -45 c15 -25 31 -43 37 -41 5 3 49 22 98 43 l87 38 0 60 c0 62 -8 105 -19 105 -3 0 -26 -12 -51 -26z"></path>
            <path id="po3JVDmz9"
                  d="M4686 5018 c-3 -13 -6 -50 -6 -83 l0 -60 88 -38 c48 -21 92 -40 97 -43 6 -2 22 15 38 38 l27 43 -37 33 c-42 38 -180 132 -193 132 -4 0 -10 -10 -14 -22z"></path>
            <path id="p16B91iYUu"
                  d="M3454 4853 l-72 -4 -7 -115 c-4 -63 -4 -118 -1 -121 7 -7 225 13 249 23 14 5 27 89 27 177 l0 37 -49 0 c-27 0 -55 1 -63 3 -7 2 -45 1 -84 0z"></path>
            <path id="p6nOObDMn"
                  d="M3936 4852 l-59 -3 7 -101 c3 -56 8 -104 11 -106 8 -8 89 -20 179 -28 l88 -7 -7 119 c-4 65 -8 120 -9 120 -4 4 -160 9 -210 6z"></path>
            <path id="p1rom6VnA"
                  d="M3160 4808 c-19 -5 -52 -14 -74 -19 l-39 -10 5 -75 c3 -41 8 -77 11 -81 4 -3 40 -8 80 -11 l74 -4 7 32 c3 18 6 66 6 106 0 82 0 82 -70 62z"></path>
            <path id="phvtQewbH"
                  d="M4302 4718 l3 -103 77 0 c43 1 80 4 84 8 4 3 7 41 8 83 l1 77 -80 18 c-44 10 -84 19 -88 19 -4 0 -6 -46 -5 -102z"></path>
            <path id="p3yfhXMkQ"
                  d="M2780 4686 c-58 -30 -65 -36 -63 -61 1 -15 3 -29 5 -30 2 -2 35 2 73 9 44 7 70 16 69 24 -1 6 -2 30 -2 52 -1 22 -5 40 -9 40 -5 0 -37 -15 -73 -34z"></path>
            <path id="pKXKsMULE"
                  d="M4670 4688 c0 -18 -3 -42 -6 -54 -5 -18 1 -21 68 -31 40 -5 74 -10 75 -9 1 1 3 14 5 30 3 26 -2 32 -62 62 -36 19 -68 34 -72 34 -5 0 -8 -15 -8 -32z"></path>
            <path id="p1DEbckQQk"
                  d="M3164 6308 l-29 -33 33 29 c30 28 37 36 29 36 -2 0 -16 -15 -33 -32z"></path>
            <path id="p1AcwAB2Yp"
                  d="M2757 6163 c18 -2 50 -2 70 0 21 2 7 4 -32 4 -38 0 -55 -2 -38 -4z"></path>
            <path id="pHdBv0rGb"
                  d="M4697 6163 c18 -2 50 -2 70 0 21 2 7 4 -32 4 -38 0 -55 -2 -38 -4z"></path>
            <path id="p11N0tZnRL"
                  d="M2429 6013 l-34 -38 38 34 c34 33 42 41 34 41 -2 0 -19 -17 -38 -37z"></path>
            <path id="pEM31HLlY"
                  d="M5090 6015 c19 -19 36 -35 39 -35 3 0 -10 16 -29 35 -19 19 -36 35 -39 35 -3 0 10 -16 29 -35z"></path>
            <path id="p1DBwNOBq"
                  d="M2290 5611 c0 -6 -17 -12 -37 -14 l-38 -4 43 -1 c31 -2 42 2 42 13 0 8 -2 15 -5 15 -3 0 -5 -4 -5 -9z"></path>
            <path id="pYyGkX0pI"
                  d="M1573 5050 c0 -30 2 -43 4 -27 2 15 2 39 0 55 -2 15 -4 2 -4 -28z"></path>
            <path id="pYi68YN8A"
                  d="M5953 5055 c0 -27 2 -38 4 -22 2 15 2 37 0 50 -2 12 -4 0 -4 -28z"></path>
            <path id="p11sC3JKHE"
                  d="M6220 4785 c19 -19 36 -35 39 -35 3 0 -10 16 -29 35 -19 19 -36 35 -39 35 -3 0 10 -16 29 -35z"></path>
            <path id="pL6qSj45s"
                  d="M1081 4355 c-95 -21 -133 -51 -176 -138 -49 -99 -55 -179 -26 -337 51 -277 17 -390 -200 -675 -137 -180 -176 -252 -191 -356 -16 -107 1 -169 61 -229 56 -56 119 -82 241 -100 95 -14 148 -10 230 15 36 12 90 18 160 18 90 1 116 -3 184 -26 43 -15 79 -26 80 -25 1 2 14 20 29 41 44 59 72 68 210 70 117 2 124 1 180 -27 162 -83 243 -279 181 -440 -6 -16 -4 -17 14 -7 11 6 31 11 44 11 42 0 168 -88 278 -193 140 -134 236 -187 381 -207 206 -29 388 77 589 345 136 183 272 305 320 290 23 -7 44 -50 33 -68 -4 -7 -41 -55 -83 -107 -42 -52 -112 -142 -155 -200 -161 -214 -311 -335 -475 -384 -85 -25 -203 -30 -287 -13 -152 33 -263 93 -389 210 l-84 79 0 -45 c0 -54 20 -77 165 -186 225 -171 342 -238 586 -340 223 -92 355 -111 784 -111 266 0 443 12 565 36 78 16 287 98 423 166 127 63 402 254 505 349 38 36 42 45 42 86 l0 46 -73 -69 c-168 -160 -327 -229 -522 -228 -168 1 -288 50 -435 178 -84 73 -113 105 -266 305 -43 56 -103 132 -131 168 -29 36 -53 70 -53 77 0 19 23 43 46 50 40 12 155 -86 262 -224 140 -181 177 -223 251 -282 134 -108 262 -149 396 -128 144 23 245 81 399 228 100 97 212 172 256 172 12 0 31 -5 42 -11 18 -10 20 -9 14 7 -18 47 -27 120 -21 162 17 113 101 229 204 279 53 26 63 28 179 26 152 -2 170 -10 237 -111 2 -1 38 10 81 25 100 34 242 38 344 8 91 -26 152 -29 251 -12 99 18 137 32 196 76 75 55 104 145 83 261 -17 95 -57 169 -191 346 -216 287 -251 404 -199 674 11 58 20 127 20 155 0 107 -57 240 -121 282 -43 28 -170 56 -219 48 -32 -5 -38 -12 -69 -77 -31 -64 -33 -71 -17 -80 102 -57 167 -197 145 -314 -22 -121 -82 -195 -209 -259 -38 -19 -70 -42 -70 -50 0 -8 7 -63 16 -122 28 -189 8 -239 -125 -301 -70 -34 -82 -36 -171 -37 -87 0 -100 3 -148 29 -84 47 -174 150 -226 260 l-45 94 -42 -21 c-29 -14 -68 -22 -125 -25 -72 -4 -89 -1 -138 21 -65 30 -152 109 -197 178 -17 27 -34 49 -38 49 -3 0 -28 -7 -55 -15 -62 -19 -124 -19 -220 -1 -156 30 -273 120 -340 259 -20 41 -36 82 -36 92 0 14 -5 16 -27 9 -16 -5 -59 -9 -98 -9 -123 0 -249 76 -302 183 l-29 58 -19 -45 c-25 -60 -89 -122 -167 -163 -56 -29 -71 -32 -143 -32 -44 1 -88 3 -98 5 -14 3 -24 -11 -46 -63 -70 -165 -188 -261 -358 -294 -95 -18 -157 -18 -219 1 -27 8 -52 15 -56 15 -4 0 -23 -24 -41 -52 -45 -70 -125 -143 -190 -173 -69 -33 -172 -34 -252 -4 -31 12 -58 19 -59 17 -2 -1 -23 -43 -47 -92 -51 -106 -140 -207 -221 -252 -48 -26 -61 -29 -148 -29 -89 1 -101 3 -171 37 -133 63 -154 114 -125 309 9 59 16 111 16 117 0 6 -34 28 -76 49 -139 69 -208 176 -207 319 0 50 7 73 33 123 31 57 74 106 116 129 15 8 13 15 -16 76 -43 90 -63 98 -189 71z m2846 -494 c41 -22 85 -59 137 -117 43 -46 90 -91 105 -98 15 -8 62 -19 105 -25 132 -19 196 -58 216 -133 21 -77 -29 -177 -111 -218 -107 -55 -165 21 -79 105 22 21 40 42 40 47 0 15 -38 27 -114 37 -113 14 -171 46 -263 146 -42 46 -90 90 -107 97 -42 17 -154 15 -191 -5 -17 -8 -63 -51 -103 -95 -85 -94 -142 -127 -251 -142 -140 -20 -144 -24 -81 -85 27 -27 40 -48 40 -66 0 -112 -179 -48 -225 80 -19 56 -19 77 5 129 25 56 92 88 216 104 l89 11 101 102 c138 141 190 167 330 161 69 -3 91 -9 141 -35z m-1022 -657 c83 -40 173 -79 200 -88 78 -24 180 -35 270 -29 80 6 84 5 109 -20 29 -30 34 -71 11 -104 -8 -12 -43 -37 -78 -57 -125 -70 -182 -120 -270 -239 -95 -128 -165 -191 -277 -247 -158 -80 -314 -106 -441 -76 -39 10 -73 15 -76 13 -2 -3 22 -32 55 -65 77 -77 130 -96 246 -90 155 9 263 72 492 290 215 205 408 358 450 358 58 0 71 -64 22 -108 -18 -16 -60 -53 -93 -82 -33 -29 -149 -138 -257 -241 -108 -102 -230 -209 -271 -236 -196 -132 -436 -159 -591 -68 -65 38 -154 137 -244 272 -102 152 -130 184 -206 235 -75 50 -86 63 -86 103 0 52 19 68 95 76 95 10 135 40 206 159 99 165 189 247 324 295 59 22 84 25 165 23 95 -3 95 -3 245 -74z m2114 57 c134 -42 251 -145 336 -297 68 -120 126 -164 220 -164 56 0 85 -25 85 -73 0 -42 -11 -55 -86 -105 -76 -51 -115 -95 -212 -242 -86 -132 -195 -246 -265 -278 -159 -74 -374 -44 -560 77 -40 26 -167 137 -282 247 -116 109 -244 228 -285 263 -41 35 -78 69 -82 75 -23 33 4 86 44 86 42 0 232 -150 443 -350 173 -163 247 -220 348 -263 65 -29 82 -32 172 -32 79 0 108 4 140 20 38 18 145 119 145 136 0 4 -19 1 -42 -8 -30 -12 -75 -17 -148 -17 -119 0 -205 21 -325 81 -127 63 -188 118 -287 256 -75 105 -129 154 -251 225 -43 25 -85 55 -93 66 -21 31 -17 74 10 101 22 22 30 23 157 23 119 0 144 3 219 27 47 15 135 52 195 83 61 30 126 61 145 68 54 20 188 17 259 -5z"></path>
            <path id="p6aSu1qwK"
                  d="M2417 3005 c-26 -25 -71 -88 -101 -138 -30 -51 -76 -112 -102 -137 l-47 -43 29 -23 c59 -48 176 -116 229 -135 185 -65 460 49 584 241 19 30 57 78 83 107 l49 51 -57 17 c-31 9 -97 34 -146 55 -49 21 -88 35 -86 31 2 -3 17 -33 33 -66 39 -77 42 -176 8 -241 -44 -83 -145 -144 -237 -144 -70 1 -177 76 -212 148 -26 54 -24 179 5 256 11 33 19 61 17 63 -2 2 -24 -17 -49 -42z"></path>
            <path id="pOZn7ivWC"
                  d="M5065 3035 c32 -80 46 -154 41 -217 -6 -77 -20 -109 -73 -160 -94 -91 -201 -101 -315 -29 -36 23 -53 44 -78 95 -48 96 -40 158 38 308 2 4 -37 -11 -87 -32 -50 -22 -115 -47 -146 -55 l-56 -17 49 -51 c26 -29 64 -77 83 -107 121 -189 385 -302 575 -245 40 12 264 146 264 158 0 1 -26 30 -57 62 -32 33 -75 92 -96 130 -38 69 -67 106 -122 155 -25 22 -27 22 -20 5z"></path>
            <path id="prSAhpGPH"
                  d="M333 2800 c0 -36 2 -50 4 -32 2 17 2 47 0 65 -2 17 -4 3 -4 -33z"></path>
            <path id="pJo20geh7"
                  d="M7193 2800 c0 -30 2 -43 4 -27 2 15 2 39 0 55 -2 15 -4 2 -4 -28z"></path>
            <path id="pnGtnXr32"
                  d="M1641 2394 c-25 -32 -25 -35 -2 -103 27 -78 3 -134 -65 -147 -45 -8 -82 16 -119 79 -73 126 -297 186 -439 118 -55 -27 -83 -70 -66 -101 18 -33 122 -80 177 -80 103 0 153 -32 153 -97 0 -59 -26 -73 -135 -73 -111 0 -150 -15 -207 -78 -45 -50 -58 -100 -32 -120 35 -26 146 -11 258 36 118 50 156 53 185 16 40 -51 20 -100 -55 -135 -47 -22 -99 -75 -115 -116 -26 -69 6 -126 93 -163 47 -20 58 -21 102 -11 108 25 156 70 245 228 29 51 61 97 71 103 35 19 77 12 99 -16 26 -33 26 -50 0 -109 -18 -42 -20 -53 -10 -87 16 -52 49 -68 96 -45 19 9 42 31 51 49 20 39 44 123 44 157 0 14 14 53 30 87 29 59 30 64 17 97 -26 61 -109 82 -248 62 -100 -14 -159 22 -159 95 0 68 35 96 143 114 87 15 112 41 112 115 0 85 -70 151 -159 151 -36 0 -48 -5 -65 -26z"></path>
            <path id="pLxvGyk8f"
                  d="M5744 2401 c-75 -46 -104 -139 -62 -200 21 -31 30 -36 94 -47 109 -18 144 -46 144 -114 0 -73 -59 -109 -159 -95 -140 20 -221 0 -247 -60 -14 -35 -14 -39 16 -99 16 -34 30 -76 30 -92 0 -43 29 -134 52 -167 42 -59 110 -59 134 0 14 33 14 41 -7 104 l-23 69 21 28 c22 30 69 40 102 23 11 -6 43 -53 72 -104 71 -127 109 -171 176 -203 69 -34 131 -36 190 -6 80 42 101 97 64 170 -23 44 -50 69 -113 106 -71 40 -86 81 -47 130 29 37 71 34 187 -16 110 -47 220 -62 256 -36 26 21 13 70 -33 121 -54 60 -99 77 -208 77 -107 0 -133 14 -133 73 0 65 50 97 153 97 55 0 159 47 177 80 17 31 -11 74 -67 101 -40 20 -63 24 -144 24 -90 0 -99 -2 -173 -38 -59 -30 -84 -49 -104 -79 -15 -23 -42 -57 -60 -76 -29 -31 -37 -34 -70 -29 -73 12 -101 82 -67 164 20 48 19 60 -10 88 -30 31 -95 34 -141 6z"></path>
            <path id="pR5VU5C9j"
                  d="M6753 2275 c0 -27 2 -38 4 -22 2 15 2 37 0 50 -2 12 -4 0 -4 -28z"></path>
            <path id="pYT09ZEgJ"
                  d="M6695 2040 c27 -27 51 -50 54 -50 3 0 -17 23 -44 50 -27 28 -51 50 -54 50 -3 0 17 -22 44 -50z"></path>
            <path id="pezcIPEpF"
                  d="M958 1613 c12 -2 32 -2 45 0 12 2 2 4 -23 4 -25 0 -35 -2 -22 -4z"></path>
            <path id="p19NRJMjVm"
                  d="M1012 1550 c0 -19 2 -27 5 -17 2 9 2 25 0 35 -3 9 -5 1 -5 -18z"></path>
            <path id="p1B1SYvbqV"
                  d="M1690 1395 c19 -19 36 -35 39 -35 3 0 -10 16 -29 35 -19 19 -36 35 -39 35 -3 0 10 -16 29 -35z"></path>
            <path id="pS8veo7Eq"
                  d="M5834 1398 l-29 -33 33 29 c17 17 32 31 32 33 0 8 -8 1 -36 -29z"></path>
            <path id="p11OR1Msn9"
                  d="M3433 1073 c9 -2 25 -2 35 0 9 3 1 5 -18 5 -19 0 -27 -2 -17 -5z"></path>
        </g>
    </g>
</svg>
